<ttFont>
<head>
    <!-- Most of this table will be recalculated by the compiler -->
    <tableVersion value="1.0"/>
    <fontRevision value="1.0"/>
    <checkSumAdjustment value="0x1b89697a"/>
    <magicNumber value="0x5f0f3cf5"/>
    <flags value="00000000 00000011"/>
    <unitsPerEm value="2048"/>
    <created value="Thu Aug 15 19:04:58 2019"/>
    <modified value="Fri Aug 16 02:19:02 2019"/>
    <xMin value="-556"/>
    <yMin value="-504"/>
    <xMax value="3771"/>
    <yMax value="2047"/>
<macStyle value="00000000 00000000"/>
    <lowestRecPPEM value="3"/>
    <fontDirectionHint value="2"/>
    <indexToLocFormat value="0"/>
    <glyphDataFormat value="0"/>
  </head>
          <CharString index="0">
            -1018 vlineto
            -90 -21 -24 -118 -21 vhcurveto
            -78 return
          </CharString>
          <CharString index="1">
            -588 vlineto
            13 callsubr
            return
          </CharString>
          <CharString index="2">
            447 -334 297 -457 -475 -312 -326 -425 vhcurveto
            return
          </CharString>
          <CharString index="3">
            467 15 rmoveto
            380 93 251 223 return
          </CharString>
          <CharString index="4">
            rmoveto
            68 callsubr
            return
          </CharString>
          <CharString index="5">
            117 callsubr
            endchar
          </CharString>
          <CharString index="6">
            320 -246 204 -347 -347 -252 -218 -317 return
          </CharString>
          <CharString index="7">
            rmoveto
            -9 callsubr
            60 callsubr
            endchar
          </CharString>
          <CharString index="8">
            rmoveto
            174 134 71 107 43 hvcurveto
            return
          </CharString>
          <CharString index="9">
            -703 38 callsubr
            return
          </CharString>
          <CharString index="10">
            51 callsubr
            endchar
          </CharString>
          <CharString index="11">
            rmoveto
            348 251 220 316 return
          </CharString>
          <CharString index="12">
            164 callsubr
            endchar
          </CharString>
          <CharString index="13">
            611 78 vlineto
            -83 15 -14 17 71 vvcurveto
            return
          </CharString>
          <CharString index="14">
            rmoveto
            -514 -63 0 -74 return
          </CharString>
          <CharString index="15">
            rmoveto
            -21 callsubr
            1230 vlineto
            -78 callsubr
            -27 callsubr
            -31 -49 -113 -5 rrcurveto
            -24 callsubr
            endchar
          </CharString>
          <CharString index="16">
            55 -17 rlineto
            -82 callsubr
            return
          </CharString>
          <CharString index="17">
            -77 callsubr
            endchar
          </CharString>
          <CharString index="18">
            603 -57 callgsubr
            -505 vlineto
            -71 -15 -18 -81 -14 vhcurveto
            -78 -35 callgsubr
            519 vlineto
            220 -140 111 -211 -184 return
          </CharString>
          <CharString index="19">
            65 callsubr
            endchar
          </CharString>
          <CharString index="20">
            rmoveto
            41 callsubr
            return
          </CharString>
          <CharString index="21">
            rmoveto
            -687 vlineto
            -389 275 -186 351 375 212 229 350 5 vhcurveto
            9 627 3 134 18 33 112 19 rlinecurve
            78 -408 -78 vlineto
            125 -21 19 -32 3 -137 9 -597 rcurveline
            -279 5 -139 -148 -209 169 callsubr
            endchar
          </CharString>
          <CharString index="22">
            -93 callsubr
            -32 callsubr
            -43 callgsubr
            182 126 83 115 51 vhcurveto
            -190 vlineto
            return
          </CharString>
          <CharString index="23">
            61 callsubr
            endchar
          </CharString>
          <CharString index="24">
            31 callsubr
            endchar
          </CharString>
          <CharString index="25">
            55 -18 9 -16 -68 vvcurveto
            return
          </CharString>
          <CharString index="26">
            rmoveto
            1018 14 callsubr
            return
          </CharString>
          <CharString index="27">
            rmoveto
            97 78 67 92 93 -78 66 -97 -97 return
          </CharString>
          <CharString index="28">
            rmoveto
            650 175 -650 hlineto
            endchar
          </CharString>
          <CharString index="29">
            12 456 rlineto
            -74 hlineto
            return
          </CharString>
          <CharString index="30">
            633 78 vlineto
            -100 16 -19 21 73 vvcurveto
            return
          </CharString>
          <CharString index="31">
            rmoveto
            -511 -63 0 -74 55 -17 rlineto
            return
          </CharString>
          <CharString index="32">
            22 24 118 21 vhcurveto
            78 return
          </CharString>
          <CharString index="33">
            -1018 vlineto
            -90 -22 -24 -117 -21 vhcurveto
            -78 return
          </CharString>
          <CharString index="34">
            1544 rmoveto
            -261 -184 return
          </CharString>
          <CharString index="35">
            rmoveto
            309 -555 rlineto
            -389 vlineto
            -100 -24 -32 -127 -19 vhcurveto
            -78 725 78 vlineto
            return
          </CharString>
          <CharString index="36">
            rmoveto
            -88 -72 -63 -88 -88 72 -63 88 87 72 63 88 88 -71 63 -88 hvcurveto
            endchar
          </CharString>
          <CharString index="37">
            1131 rmoveto
            432 -52 callgsubr
            return
          </CharString>
          <CharString index="38">
            1534 89 callgsubr
            return
          </CharString>
          <CharString index="39">
            rmoveto
            351 -835 -79 -118 -136 -167 -97 -103 rlinecurve
            -6 305 vlineto
            153 423 144 342 183 447 59 145 26 24 86 18 rlinecurve
            78 -371 -78 vlineto
            222 callsubr
            endchar
          </CharString>
          <CharString index="40">
            -514 -64 0 -74 -91 callsubr
            return
          </CharString>
          <CharString index="41">
            -78 -66 -93 -92 78 -67 97 hvcurveto
            endchar
          </CharString>
          <CharString index="42">
            -78 hlineto
            118 -21 21 -24 -90 vvcurveto
            return
          </CharString>
          <CharString index="43">
            1018 29 callgsubr
            return
          </CharString>
          <CharString index="44">
            1534 rmoveto
            96 callgsubr
            return
          </CharString>
          <CharString index="45">
            -1063 vlineto
            13 callsubr
            return
          </CharString>
          <CharString index="46">
            -128 19 -23 32 100 vvcurveto
            412 vlineto
            211 callsubr
            endchar
          </CharString>
          <CharString index="47">
            -417 rlineto
            74 hlineto
            51 240 73 64 216 20 40 return
          </CharString>
          <CharString index="48">
            109 20 vhcurveto
            78 -693 38 callsubr
            return
          </CharString>
          <CharString index="49">
            1131 rmoveto
            261 184 260 -184 return
          </CharString>
          <CharString index="50">
            -453 -505 453 vlineto
            85 21 23 return
          </CharString>
          <CharString index="51">
            561 1032 -76 callsubr
            return
          </CharString>
          <CharString index="52">
            213 rmoveto
            1018 vlineto
            90 return
          </CharString>
          <CharString index="53">
            1534 rmoveto
            244 return
          </CharString>
          <CharString index="54">
            -74 -38 -47 -32 hvcurveto
            -66 vlineto
            19 8 30 6 30 -1 rrcurveto
            57 -1 42 -21 -41 vvcurveto
            -41 -39 -23 return
          </CharString>
          <CharString index="55">
            rmoveto
            -88 -72 -63 -88 -88 72 -63 88 87 72 63 88 88 -72 63 -87 hvcurveto
            endchar
          </CharString>
          <CharString index="56">
            564 1508 rmoveto
            -67 callsubr
            -62 callsubr
            return
          </CharString>
          <CharString index="57">
            4 rcurveline
            -1126 vlineto
            -100 -23 -32 -128 -19 vhcurveto
            -78 return
          </CharString>
          <CharString index="58">
            1131 rmoveto
            432 386 rlineto
            9 return
          </CharString>
          <CharString index="59">
            78 vlineto
            -127 19 -24 32 100 vvcurveto
            return
          </CharString>
          <CharString index="60">
            -398 vlineto
            -132 -395 rlineto
            return
          </CharString>
          <CharString index="61">
            -84 -74 -103 -102 84 -75 104 hvcurveto
            return
          </CharString>
          <CharString index="62">
            rmoveto
            -6 -356 rlineto
            74 hlineto
            return
          </CharString>
          <CharString index="63">
            -627 vlineto
            -313 -36 -114 -151 -136 vhcurveto
            40 -63 85 48 rlineto
            344 193 113 140 346 vvcurveto
            endchar
          </CharString>
          <CharString index="64">
            1146 rmoveto
            109 88 78 108 108 -88 78 -109 -110 -88 -78 -108 -108 88 -78 110 hvcurveto
            return
          </CharString>
          <CharString index="65">
            1166 rmoveto
            127 91 97 244 -11 hvcurveto
            -90 hlineto
            -98 return
          </CharString>
          <CharString index="66">
            1131 rmoveto
            98 hlineto
            -122 395 rlineto
            -412 -9 hlineto
            return
          </CharString>
          <CharString index="67">
            1155 rmoveto
            104 84 75 102 103 -84 74 -104 -104 return
          </CharString>
          <CharString index="68">
            1854 rmoveto
            -244 -137 -243 137 return
          </CharString>
          <CharString index="69">
            1360 1444 rmoveto
            -1309 hlineto
            -11 return
          </CharString>
          <CharString index="70">
            rmoveto
            159 111 72 118 117 -99 68 return
          </CharString>
          <CharString index="71">
            1217 rmoveto
            699 195 -699 hlineto
            return
          </CharString>
          <CharString index="72">
            693 78 vlineto
            -109 19 -21 24 85 vvcurveto
            return
          </CharString>
          <CharString index="73">
            98 callsubr
            147 callsubr
            return
          </CharString>
          <CharString index="74">
            -1 -68 rlineto
            -47 43 83 -33 100 hhcurveto
            endchar
          </CharString>
          <CharString index="75">
            54 -17 rlineto
            56 -18 9 -16 -68 vvcurveto
            return
          </CharString>
          <CharString index="76">
            -64 -53 -54 16 22 -30 vhcurveto
            return
          </CharString>
          <CharString index="77">
            rmoveto
            -167 152 -103 189 -25 vhcurveto
            -217 -26 -124 -97 -136 vvcurveto
            -1 -138 141 -87 208 -2 rrcurveto
            -274 -9 -112 -69 -102 vvcurveto
            -134 1 202 -93 354 hhcurveto
            350 248 155 227 1 hvcurveto
            201 -154 124 -306 vhcurveto
            -183 hlineto
            -105 -52 29 52 43 35 29 56 14 hvcurveto
            -4 41 38 -3 40 hhcurveto
            298 222 116 202 97 -63 87 -97 36 hvcurveto
            267 -23 0 123 -358 -25 rlineto
            28 -73 -100 18 -107 hhcurveto
            -305 -212 -137 -201 hvcurveto
            385 14 rmoveto
            139 46 90 92 88 55 -90 -148 -141 -48 -89 -90 -86 -57 90 149 vhcurveto
            -86 -946 rmoveto
            78 52 50 89 8 vhcurveto
            150 hlineto
            131 59 -49 -80 -97 -99 -65 -154 -143 -85 62 93 hvcurveto
            endchar
          </CharString>
          <CharString index="78">
            -243 146 -96 185 139 127 57 63 50 vhcurveto
            101 callgsubr
            -9 callgsubr
            return
          </CharString>
          <CharString index="79">
            rmoveto
            204 132 106 177 -7 hvcurveto
            -89 hlineto
            -63 -7 -97 -41 -136 hhcurveto
            -135 -98 42 62 return
          </CharString>
          <CharString index="80">
            -65 -280 -79 -66 -266 -12 rrcurveto
            -195 -9 0 604 165 50 callgsubr
            return
          </CharString>
          <CharString index="81">
            -249 -142 300 352 379 145 255 244 -26 callgsubr
          </CharString>
          <CharString index="82">
            166 242 -166 92 0 -219 356 -230 0 -219 -356 rlineto
            endchar
          </CharString>
          <CharString index="83">
            -165 -3 0 573 168 -7 259 -13 73 -66 58 -242 rlinecurve
            74 hlineto
            return
          </CharString>
          <CharString index="84">
            99 0 -235 395 -248 0 -235 -395 rlineto
            return
          </CharString>
          <CharString index="85">
            -82 0 66 -311 179 -54 0 -310 -179 rlineto
            return
          </CharString>
          <CharString index="86">
            -1184 -65 callsubr
            -107 callsubr
            return
          </CharString>
          <CharString index="87">
            1166 rmoveto
            98 80 70 96 98 -80 69 -98 -98 return
          </CharString>
          <CharString index="88">
            -20 -21 vvcurveto
            -144 108 -138 214 vhcurveto
            return
          </CharString>
          <CharString index="89">
            627 1444 -7 callsubr
            return
          </CharString>
          <CharString index="90">
            1524 -105 callgsubr
            return
          </CharString>
          <CharString index="91">
            1524 32 callsubr
            return
          </CharString>
          <CharString index="92">
            -65 -58 -81 -81 65 -59 81 hvcurveto
            return
          </CharString>
          <CharString index="93">
            -128 -82 -114 -50 vhcurveto
            return
          </CharString>
          <CharString index="94">
            496 hmoveto
            98 79 70 96 return
          </CharString>
          <CharString index="95">
            rmoveto
            263 385 rlineto
            10 return
          </CharString>
          <CharString index="96">
            rmoveto
            276 -770 247 0 238 673 241 -673 248 0 261 742 54 156 29 25 81 17 rlinecurve
            78 -349 -78 vlineto
            97 -13 12 -32 -41 -145 rrcurveto
            -122 -407 -119 407 -40 144 9 35 96 11 rlinecurve
            78 -615 -78 vlineto
            94 -12 10 -33 -40 -143 rrcurveto
            -122 -410 -117 408 -40 144 9 34 98 12 rlinecurve
            78 -647 -78 vlineto
            78 -18 29 -27 45 -125 rrcurveto
            endchar
          </CharString>
          <CharString index="97">
            rmoveto
            -444 332 -298 480 220 216 49 84 124 vhcurveto
            407 vlineto
            85 19 25 109 15 vhcurveto
            77 -637 -77 vlineto
            118 -14 20 -25 -85 vvcurveto
            -392 vlineto
            -26 -30 -58 -18 -70 hhcurveto
            -241 -135 297 355 379 141 255 250 192 131 -164 -236 54 hvcurveto
            74 hlineto
            -8 414 rlineto
            57 -88 -173 34 -208 hhcurveto
            -469 -363 -267 -487 hvcurveto
            endchar
          </CharString>
          <CharString index="98">
            -406 1150 -322 0 -404 -1129 -67 -186 -29 -33 -110 -19 rlinecurve
            -78 443 78 vlineto
            -138 22 -23 38 57 176 rrcurveto
            51 158 442 0 55 -167 55 -168 -24 -39 -135 -20 rlinecurve
            -78 return
          </CharString>
          <CharString index="99">
            20 -20 32 -3 46 callgsubr
            3 135 18 33 116 19 rlinecurve
            78 -414 -78 vlineto
            124 -19 19 -33 3 -139 18 -801 rcurveline
            return
          </CharString>
          <CharString index="100">
            rmoveto
            -588 -78 hlineto
            112 -21 25 -36 -1 -102 rrcurveto
            -11 -942 -1 -135 -19 -33 -116 -19 rlinecurve
            -78 414 78 vlineto
            -124 return
          </CharString>
          <CharString index="101">
            rmoveto
            -468 359 -278 471 194 180 42 59 86 vhcurveto
            9 417 rlineto
            -47 callgsubr
            return
          </CharString>
          <CharString index="102">
            rmoveto
            128 76 73 130 -2 hvcurveto
            -91 hlineto
            -47 -1 -27 -20 -52 hhcurveto
            return
          </CharString>
          <CharString index="103">
            1131 rmoveto
            263 386 rlineto
            9 -333 vlineto
            -36 -395 rlineto
            return
          </CharString>
          <CharString index="104">
            1534 rmoveto
            97 hlineto
            -102 306 rlineto
            -411 -8 hlineto
            return
          </CharString>
          <CharString index="105">
            11 492 rlineto
            -74 hlineto
            -71 -303 -93 -81 -229 -13 return
          </CharString>
          <CharString index="106">
            -1 -23 -24 vvcurveto
            -167 116 -158 236 vhcurveto
            return
          </CharString>
          <CharString index="107">
            366 hmoveto
            81 65 59 81 81 -65 58 -81 -81 return
          </CharString>
          <CharString index="108">
            rmoveto
            97 79 67 92 93 -79 -49 callgsubr
          </CharString>
          <CharString index="109">
            1585 rmoveto
            629 169 -629 hlineto
            return
          </CharString>
          <CharString index="110">
            -14 hlineto
            -71 -57 -50 -71 -70 57 -50 71 hvcurveto
            return
          </CharString>
          <CharString index="111">
            rmoveto
            169 vlineto
            -675 -194 rlineto
            -63 vlineto
            return
          </CharString>
          <CharString index="112">
            -260 184 -99 0 235 -395 return
          </CharString>
          <CharString index="113">
            1151 rmoveto
            -29 callgsubr
            return
          </CharString>
          <CharString index="114">
            -80 -66 -58 -81 -81 65 -59 81 hvcurveto
            return
          </CharString>
          <CharString index="115">
            vlineto
            -90 -22 -24 -118 -21 vhcurveto
            -78 return
          </CharString>
          <CharString index="116">
            -88 -226 10 hvcurveto
            89 hlineto
            88 return
          </CharString>
          <CharString index="117">
            rmoveto
            660 159 -660 hlineto
            return
          </CharString>
          <CharString index="118">
            1739 81 719 rmoveto
            return
          </CharString>
          <CharString index="119">
            816 154 317 rmoveto
            return
          </CharString>
          <CharString index="120">
            -73 -19 -21 -100 -16 vhcurveto
            -78 return
          </CharString>
          <CharString index="121">
            vlineto
            90 -75 callsubr
            return
          </CharString>
          <CharString index="122">
            rmoveto
            351 -1150 308 0 321 1066 310 -1066 314 0 347 1130 57 186 33 33 107 18 rlinecurve
            78 -436 -78 vlineto
            133 -20 16 -37 -44 -172 rrcurveto
            -210 -795 -219 815 -43 157 9 31 129 21 rlinecurve
            78 -701 -78 vlineto
            126 -20 12 -30 -40 -153 rrcurveto
            -217 -821 -216 805 -42 162 18 36 135 21 rlinecurve
            78 -746 -78 vlineto
            104 -17 33 -34 51 -166 rrcurveto
            endchar
          </CharString>
          <CharString index="123">
            rmoveto
            478 91 vlineto
            359 -684 rlineto
            488 74 hlineto
            -64 26 -35 39 -122 227 rrcurveto
            -332 629 135 138 163 162 70 44 129 27 rlinecurve
            78 -489 -78 vlineto
            126 -19 14 -37 -107 -128 rrcurveto
            -336 -402 -90 -1 rlineto
            459 vlineto
            85 20 23 110 20 vhcurveto
            78 -693 -78 vlineto
            117 -21 22 -24 -90 vvcurveto
            -74 callsubr
            693 78 vlineto
            -110 19 -20 24 85 vvcurveto
            endchar
          </CharString>
          <CharString index="124">
            -135 -6 rcurveline
            1135 vlineto
            94 23 28 128 20 -90 callgsubr
            -74 callsubr
            vlineto
            return
          </CharString>
          <CharString index="125">
            1739 617 206 40 callsubr
            -20 62 callgsubr
            return
          </CharString>
          <CharString index="126">
            rmoveto
            189 161 68 107 82 hvcurveto
            157 callsubr
            -328 254 -196 310 vhcurveto
            endchar
          </CharString>
          <CharString index="127">
            100 -17 19 -21 -72 vvcurveto
            -641 vlineto
            13 callsubr
            return
          </CharString>
          <CharString index="128">
            39 -25 -43 -45 -41 -24 -60 -49 -49 15 19 -27 hvcurveto
            -1 -75 rlineto
            -50 43 86 -33 101 hhcurveto
            return
          </CharString>
          <CharString index="129">
            141 callsubr
            100 callsubr
            365 hmoveto
            44 callsubr
            return
          </CharString>
          <CharString index="130">
            1258 1208 hmoveto
            -2 callsubr
            17 callsubr
            return
          </CharString>
          <CharString index="131">
            1126 vlineto
            41 -4 217 -20 72 -67 51 -237 rlinecurve
            74 hlineto
            return
          </CharString>
          <CharString index="132">
            1877 rmoveto
            170 vlineto
            -675 -194 rlineto
            -63 vlineto
            return
          </CharString>
          <CharString index="133">
            -97 0 214 -306 251 0 215 306 rlineto
            return
          </CharString>
          <CharString index="134">
            -14 -28 42 hvcurveto
            33 -22 rlineto
            -41 62 53 -22 67 hhcurveto
            return
          </CharString>
          <CharString index="135">
            1392 540 1032 -85 callsubr
            return
          </CharString>
          <CharString index="136">
            rmoveto
            70 57 50 70 71 -57 50 -70 hvcurveto
            -15 hlineto
            return
          </CharString>
          <CharString index="137">
            1475 rmoveto
            660 160 -660 hlineto
            return
          </CharString>
          <CharString index="138">
            703 78 vlineto
            -118 21 -22 24 90 vvcurveto
            return
          </CharString>
          <CharString index="139">
            rmoveto
            198 vlineto
            -658 -228 rlineto
            -74 vlineto
            return
          </CharString>
          <CharString index="140">
            1608 745 109 callsubr
            return
          </CharString>
          <CharString index="141">
            98 -79 69 -98 -98 102 callsubr
            return
          </CharString>
          <CharString index="142">
            66 callsubr
            72 -63 88 hvcurveto
            return
          </CharString>
          <CharString index="143">
            100 -16 19 -22 -73 vvcurveto
            -640 vlineto
            return
          </CharString>
          <CharString index="144">
            -70 -57 -50 -71 -70 57 -50 70 hvcurveto
            return
          </CharString>
          <CharString index="145">
            -78 vlineto
            118 -21 21 -24 -90 vvcurveto
            return
          </CharString>
          <CharString index="146">
            -79 -66 -93 -92 79 -67 97 hvcurveto
            endchar
          </CharString>
          <CharString index="147">
            rmoveto
            483 505 -483 vlineto
            -87 return
          </CharString>
          <CharString index="148">
            -329 254 -195 313 return
          </CharString>
          <CharString index="149">
            248 0 235 395 rlineto
            return
          </CharString>
          <CharString index="150">
            222 159 162 241 return
          </CharString>
          <CharString index="151">
            81 66 59 81 81 -66 58 -81 return
          </CharString>
          <CharString index="152">
            -79 -69 -98 -96 79 -70 98 hvcurveto
            return
          </CharString>
          <CharString index="153">
            1163 67 502 rmoveto
            return
          </CharString>
          <CharString index="154">
            -129 -83 -115 -49 vhcurveto
            return
          </CharString>
          <CharString index="155">
            -114 -93 callsubr
            return
          </CharString>
          <CharString index="156">
            676 135 -676 hlineto
            return
          </CharString>
          <CharString index="157">
            148 -34 callgsubr
            return
          </CharString>
          <CharString index="158">
            -112 24 123 -61 132 hhcurveto
            98 86 26 33 46 hvcurveto
            74 vlineto
            -3 -9 -15 -2 -15 hhcurveto
            -52 -40 34 80 hvcurveto
            446 vlineto
            255 -183 112 -314 -307 -182 -122 -147 -91 73 -64 97 98 74 70 92 59 -32 51 -48 27 vhcurveto
            8 32 35 5 36 hhcurveto
            151 83 -68 -175 hvcurveto
            -88 vlineto
            -201 -41 rlineto
            -326 -65 -115 -110 -153 vvcurveto
            -147 118 -101 182 vhcurveto
            84 309 rmoveto
            105 55 69 147 35 vhcurveto
            56 12 rlineto
            -295 vlineto
            -46 -22 -47 -28 -62 hhcurveto
            -72 -55 51 97 hvcurveto
            return
          </CharString>
          <CharString index="159">
            rmoveto
            -122 -180 -45 -36 -113 -19 rrcurveto
            -78 448 78 vlineto
            -134 21 -5 36 97 161 rrcurveto
            179 293 189 -310 87 -144 -6 -35 -134 -22 rlinecurve
            -78 758 78 vlineto
            -95 28 -45 40 -84 139 rrcurveto
            -305 500 237 350 120 177 46 35 113 19 rlinecurve
            78 -445 -78 vlineto
            133 -21 4 -35 -95 -161 rrcurveto
            -167 -277 -178 293 -88 146 5 33 135 22 rlinecurve
            78 -756 -78 vlineto
            95 -28 43 -41 84 -138 295 -482 rcurveline
            endchar
          </CharString>
          <CharString index="160">
            rmoveto
            -387 276 -185 351 363 225 224 352 3 vhcurveto
            7 832 rlineto
            -4 26 27 -3 25 hhcurveto
            155 102 67 118 110 -86 101 -134 50 hvcurveto
            -77 hlineto
            24 -27 17 -58 -58 vvcurveto
            -124 -1 -87 -110 -182 hhcurveto
            -88 -78 hlineto
            136 -23 19 -26 1 -125 6 -631 rcurveline
            -260 2 -130 -149 -208 hhcurveto
            -208 -140 129 277 hvcurveto
            672 vlineto
            90 23 23 133 23 vhcurveto
            78 -723 -78 vlineto
            120 -22 23 -24 -90 vvcurveto
            endchar
          </CharString>
          <CharString index="161">
            rmoveto
            -610 -78 hlineto
            112 -17 26 -38 -3 -100 rrcurveto
            -30 -948 -5 -135 -19 -32 -115 -18 rlinecurve
            -78 411 78 vlineto
            -119 21 -19 29 135 vvcurveto
            -1 966 398 -1229 234 0 108 401 266 827 25 -1019 2 -89 -24 -24 -114 -18 rlinecurve
            -78 699 78 vlineto
            -122 19 -20 24 -3 92 rrcurveto
            -27 1018 -2 91 24 26 119 18 rlinecurve
            78 vlineto
            -613 2 -276 -961 rlineto
            endchar
          </CharString>
          <CharString index="162">
            rmoveto
            281 -241 146 -422 vhcurveto
            -720 -65 callsubr
            -107 callsubr
            714 -48 callsubr
            333 157 vlineto
            381 282 159 296 hvcurveto
            -445 -18 rmoveto
            -204 -110 -132 -202 -9 vhcurveto
            -63 -3 0 704 63 -3 rlineto
            215 -10 97 -140 -203 vvcurveto
            endchar
          </CharString>
          <CharString index="163">
            298 -157 237 -230 115 vhcurveto
            -10 47 50 -5 50 hhcurveto
            168 114 66 127 1 hvcurveto
            1 110 -90 107 -138 50 rrcurveto
            -77 hlineto
            24 -27 17 -59 -56 vvcurveto
            -129 -1 -85 -103 -157 -102 -101 23 -125 -69 callgsubr
            -102 callsubr
          </CharString>
          <CharString index="164">
            54 -18 10 -16 -68 vvcurveto
            -589 171 callsubr
            471 vlineto
            37 42 102 24 101 hhcurveto
            67 67 -11 -13 34 hvcurveto
            14 29 11 51 53 vvcurveto
            108 -49 87 -103 -112 -90 -91 -223 -88 vhcurveto
            return
          </CharString>
          <CharString index="165">
            1359 67 497 73 callsubr
            -68 callgsubr
            return
          </CharString>
          <CharString index="166">
            1336 rmoveto
            -127 134 -83 190 190 134 83 128 126 -134 85 -190 -14 callgsubr
            return
          </CharString>
          <CharString index="167">
            754 78 vlineto
            -108 19 -33 35 -58 163 rrcurveto
            -915 279 rmoveto
            186 574 189 -574 rlineto
            return
          </CharString>
          <CharString index="168">
            510 56 0 73 -54 17 rlineto
            -56 18 -9 17 68 vvcurveto
            797 vlineto
            -36 callgsubr
            -72 callgsubr
            return
          </CharString>
          <CharString index="169">
            rmoveto
            -521 -63 0 -74 56 -17 rlineto
            60 -19 10 -15 -68 vvcurveto
            -43 callgsubr
            200 callsubr
            endchar
          </CharString>
          <CharString index="170">
            1131 rmoveto
            260 184 260 -184 99 0 -235 395 -247 0 -236 -395 rlineto
            return
          </CharString>
          <CharString index="171">
            130 callsubr
            299 395 rmoveto
            -315 -9 hlineto
            237 -386 rlineto
            104 hlineto
            return
          </CharString>
          <CharString index="172">
            196 166 65 112 81 vhcurveto
            -83 callgsubr
            204 callsubr
            return
          </CharString>
          <CharString index="173">
            1537 rmoveto
            89 72 63 87 88 -72 62 -89 -88 -72 -62 -88 -87 return
          </CharString>
          <CharString index="174">
            1886 rmoveto
            -117 -86 -55 -62 -39 hvcurveto
            1 -56 rlineto
            20 25 return
          </CharString>
          <CharString index="175">
            -447 333 -298 458 474 313 327 425 return
          </CharString>
          <CharString index="176">
            hlineto
            -67 -53 -42 -60 -61 -33 callgsubr
            61 callgsubr
            return
          </CharString>
          <CharString index="177">
            1449 rmoveto
            124 76 84 154 -3 hvcurveto
            -89 hlineto
            -55 return
          </CharString>
          <CharString index="178">
            725 -48 callsubr
            24 callsubr
            endchar
          </CharString>
          <CharString index="179">
            -38 -51 hhcurveto
            -33 -27 14 29 -43 hvcurveto
            -32 22 rlineto
            41 return
          </CharString>
          <CharString index="180">
            rmoveto
            -327 177 -192 233 160 122 return
          </CharString>
          <CharString index="181">
            214 -306 252 0 214 306 rlineto
            return
          </CharString>
          <CharString index="182">
            -71 -56 -50 -71 -70 56 -50 71 hvcurveto
            388 hmoveto
            return
          </CharString>
          <CharString index="183">
            1585 rmoveto
            630 169 -630 hlineto
            return
          </CharString>
          <CharString index="184">
            137 243 -137 99 callgsubr
            return
          </CharString>
          <CharString index="185">
            rmoveto
            243 166 241 -166 92 0 return
          </CharString>
          <CharString index="186">
            641 vlineto
            72 18 21 101 17 vhcurveto
            78 return
          </CharString>
          <CharString index="187">
            1 -60 rlineto
            4 9 19 4 17 hhcurveto
            59 return
          </CharString>
          <CharString index="188">
            rmoveto
            182 159 83 167 107 -81 return
          </CharString>
          <CharString index="189">
            hlineto
            -177 -7 132 -106 204 hhcurveto
            return
          </CharString>
          <CharString index="190">
            hlineto
            -150 -7 135 -90 209 hhcurveto
            return
          </CharString>
          <CharString index="191">
            hlineto
            -53 -7 -101 -36 -139 hhcurveto
            -138 return
          </CharString>
          <CharString index="192">
            89 71 63 87 88 -71 62 -89 -89 return
          </CharString>
          <CharString index="193">
            71 56 50 70 71 -56 50 -71 hvcurveto
            return
          </CharString>
          <CharString index="194">
            46 15 49 hhcurveto
            64 41 -26 -45 -45 return
          </CharString>
          <CharString index="195">
            -87 -250 -250 -38 -80 -70 hvcurveto
            return
          </CharString>
          <CharString index="196">
            -1153 -96 callsubr
            return
          </CharString>
          <CharString index="197">
            1878 4 callsubr
            return
          </CharString>
          <CharString index="198">
            1537 51 callgsubr
            return
          </CharString>
          <CharString index="199">
            -334 vlineto
            -36 -395 rlineto
            endchar
          </CharString>
          <CharString index="200">
            -132 hvcurveto
            -9 -8 -1 -8 hhcurveto
            return
          </CharString>
          <CharString index="201">
            -118 21 -22 24 90 vvcurveto
            endchar
          </CharString>
          <CharString index="202">
            660 -22 -96 callsubr
            return
          </CharString>
          <CharString index="203">
            388 hmoveto
            86 callsubr
            return
          </CharString>
          <CharString index="204">
            364 -22 -99 callsubr
            return
          </CharString>
          <CharString index="205">
            329 96 329 -96 0 77 return
          </CharString>
          <CharString index="206">
            61 88 vhcurveto
            3 -87 vlineto
            -3 -17 return
          </CharString>
          <CharString index="207">
            -66 -58 -81 -81 66 -59 81 hvcurveto
            return
          </CharString>
          <CharString index="208">
            -71 -62 -88 -87 71 -63 89 hvcurveto
            return
          </CharString>
          <CharString index="209">
            -80 -69 -98 -96 80 -70 98 hvcurveto
            return
          </CharString>
          <CharString index="210">
            rmoveto
            355 276 164 304 221 -128 157 -276 88 hvcurveto
            -131 42 rlineto
            -158 51 -73 65 107 vvcurveto
            112 84 80 158 184 133 -139 -218 47 vhcurveto
            74 hlineto
            -8 369 rlineto
            56 -87 -160 37 -193 hhcurveto
            -389 -239 -176 -281 -217 140 -150 263 -83 hvcurveto
            131 -42 rlineto
            164 -53 68 -73 -112 vvcurveto
            -119 -95 -85 -155 -198 -177 148 256 -54 vhcurveto
            -74 hlineto
            12 -408 rlineto
            -59 107 192 -42 207 hhcurveto
            return
          </CharString>
          <CharString index="211">
            rmoveto
            -229 332 170 225 84 118 42 30 88 16 rlinecurve
            78 -385 -79 vlineto
            102 -16 7 -27 -71 -115 rrcurveto
            -96 -143 -100 144 -73 113 9 30 104 15 rlinecurve
            78 -636 -78 vlineto
            60 -15 33 -25 69 -99 rrcurveto
            229 -332 -166 -213 -94 -126 -40 -31 -96 -20 rlinecurve
            -78 396 78 vlineto
            -96 16 -12 29 72 116 rrcurveto
            96 142 97 -142 74 -115 -11 -31 -102 -15 rlinecurve
            -78 638 78 vlineto
            -60 15 -35 27 -68 98 rrcurveto
            endchar
          </CharString>
          <CharString index="212">
            rmoveto
            -176 128 -95 193 -58 vhcurveto
            92 -26 rlineto
            108 -33 45 -38 -67 vvcurveto
            -70 -63 -49 -112 -163 -117 117 152 -37 vhcurveto
            -75 hlineto
            9 -287 rlineto
            -48 88 153 -35 154 hhcurveto
            311 205 129 216 175 -104 101 -211 62 hvcurveto
            -93 26 rlineto
            -106 33 -52 35 67 vvcurveto
            68 58 45 109 135 92 -87 -142 40 vhcurveto
            75 hlineto
            -5 269 rlineto
            32 -66 -125 30 -154 hhcurveto
            -326 -186 -133 -213 hvcurveto
            return
          </CharString>
          <CharString index="213">
            rmoveto
            -118 -102 -47 -55 -55 hvcurveto
            -73 vlineto
            4 9 18 5 20 hhcurveto
            61 26 -38 -104 hvcurveto
            -68 -6 -187 -69 vvcurveto
            -267 156 -157 283 306 214 255 372 279 -96 154 -154 -135 -79 -131 -165 37 vhcurveto
            165 -23 104 -141 -168 vvcurveto
            -157 -87 -93 -119 -124 -71 91 172 vhcurveto
            69 6 174 65 vvcurveto
            202 -86 101 -173 vhcurveto
            endchar
          </CharString>
          <CharString index="214">
            1659 830 -26 rmoveto
            411 338 337 412 412 -338 337 -411 -412 -337 -337 -412 -412 338 -337 411 hvcurveto
            63 vmoveto
            -372 -307 309 377 376 306 310 373 372 306 -309 -377 -376 -307 -310 -371 hvcurveto
            return
          </CharString>
          <CharString index="215">
            1556 167 1236 rmoveto
            -687 vlineto
            -389 275 -186 351 375 212 229 350 5 vhcurveto
            9 627 3 134 18 33 112 19 rlinecurve
            78 -408 -78 vlineto
            125 -21 19 -32 3 -137 9 -597 rcurveline
            -279 5 -139 -148 -209 169 callsubr
            return
          </CharString>
          <CharString index="216">
            rmoveto
            454 -350 245 -539 vhcurveto
            -665 -65 callsubr
            -107 callsubr
            -54 callgsubr
            -467 -24 143 callsubr
            -75 callgsubr
            return
          </CharString>
          <CharString index="217">
            rmoveto
            227 -192 125 -288 14 vhcurveto
            222 12 197 101 195 vvcurveto
            227 -235 118 -399 vhcurveto
            -718 -65 callsubr
            -107 callsubr
            203 callsubr
            endchar
          </CharString>
          <CharString index="218">
            rmoveto
            13 -700 rlineto
            -237 4 118 -102 197 hhcurveto
            150 124 73 93 63 hvcurveto
            74 vlineto
            -22 -33 -44 -12 -52 hhcurveto
            -96 -63 53 127 3 hvcurveto
            48 18 475 6 130 vhcurveto
            endchar
          </CharString>
          <CharString index="219">
            444 652 rmoveto
            222 159 163 241 240 -159 163 -215 -222 -158 -162 -241 -240 158 -164 215 hvcurveto
            return
          </CharString>
          <CharString index="220">
            1526 rmoveto
            -25 -395 101 0 240 386 rlineto
            9 vlineto
            115 hmoveto
            -133 -395 112 0 369 386 rlineto
            9 vlineto
            return
          </CharString>
          <CharString index="221">
            rmoveto
            209 135 90 150 -7 hvcurveto
            -90 84 callsubr
            -102 36 53 -7 hvcurveto
            -90 83 callsubr
            endchar
          </CharString>
          <CharString index="222">
            479 1444 65 callgsubr
            -59 -29 -19 -102 -11 vhcurveto
            -52 511 52 vlineto
            -101 11 -29 19 59 vvcurveto
            return
          </CharString>
          <CharString index="223">
            -32 7 14 -39 vhcurveto
            -40 13 rlineto
            18 -50 -51 13 -53 hhcurveto
            -124 -76 -85 -154 3 hvcurveto
            89 hlineto
            56 return
          </CharString>
          <CharString index="224">
            204 123 -264 -390 -381 -93 -251 -222 -206 -122 265 390 vhcurveto
            return
          </CharString>
          <CharString index="225">
            157 27 81 54 96 vvcurveto
            94 -91 61 -123 vhcurveto
            -581 -589 rmoveto
            98 callsubr
            return
          </CharString>
          <CharString index="226">
            vlineto
            70 14 17 83 16 vhcurveto
            78 -611 -78 vlineto
            20 callsubr
            -94 callsubr
            endchar
          </CharString>
          <CharString index="227">
            86 -136 21 hvcurveto
            119 18 76 61 90 vvcurveto
            103 -105 71 -159 -172 -114 return
          </CharString>
          <CharString index="228">
            40 -25 -43 -45 -42 -24 -60 -49 -49 15 19 -27 hvcurveto
            -75 vlineto
            -50 42 86 -33 102 hhcurveto
            return
          </CharString>
          <CharString index="229">
            137 243 -137 97 0 -214 306 -251 0 -214 -306 rlineto
            return
          </CharString>
          <CharString index="230">
            -35 -42 -87 -49 hvcurveto
            81 hlineto
            185 57 72 62 80 vvcurveto
            87 -82 59 -118 vhcurveto
            return
          </CharString>
          <CharString index="231">
            rmoveto
            -88 -71 -63 -88 -88 71 -63 88 88 72 63 88 88 -72 63 -88 hvcurveto
            endchar
          </CharString>
          <CharString index="232">
            1537 rmoveto
            85 callsubr
            -72 -62 -88 -87 72 -63 89 hvcurveto
            return
          </CharString>
          <CharString index="233">
            496 hmoveto
            98 80 70 96 98 -80 69 -98 -98 102 callsubr
            return
          </CharString>
          <CharString index="234">
            92 74 63 87 88 -74 62 -92 -91 -74 -62 -88 -87 74 -63 91 hvcurveto
            return
          </CharString>
          <CharString index="235">
            73 57 47 65 66 -57 46 -73 -72 -58 -46 -66 -65 57 -47 73 hvcurveto
            return
          </CharString>
          <CharString index="236">
            rmoveto
            68 53 42 61 60 -53 42 -68 hvcurveto
            -14 69 callsubr
            endchar
          </CharString>
          <CharString index="237">
            1526 rmoveto
            -348 -9 hlineto
            370 -386 rlineto
            110 hlineto
            return
          </CharString>
          <CharString index="238">
            hhcurveto
            -30 -26 12 25 -39 hvcurveto
            -30 19 rlineto
            38 -58 -50 20 -63 hhcurveto
            return
          </CharString>
          <CharString index="239">
            1561 rmoveto
            215 72 callgsubr
            -98 -60 -133 return
          </CharString>
          <CharString index="240">
            174 callsubr
            -37 -48 -99 -58 hvcurveto
            94 hlineto
            212 66 return
          </CharString>
          <CharString index="241">
            1434 rmoveto
            70 57 50 71 71 -57 50 -70 hvcurveto
            -15 hlineto
            return
          </CharString>
          <CharString index="242">
            -42 vhcurveto
            46 -27 rlineto
            68 32 62 36 78 hhcurveto
            80 42 -40 -58 return
          </CharString>
          <CharString index="243">
            1854 rmoveto
            -243 -137 -243 137 -98 0 return
          </CharString>
          <CharString index="244">
            99 79 70 96 98 -79 69 -99 -98 45 callsubr
            return
          </CharString>
          <CharString index="245">
            15 19 -27 hvcurveto
            -1 -75 rlineto
            -50 43 86 -33 101 hhcurveto
            endchar
          </CharString>
          <CharString index="246">
            -1 -28 72 callsubr
            -62 -54 22 -67 hhcurveto
            -127 return
          </CharString>
          <CharString index="247">
            rmoveto
            125 75 85 154 -3 hvcurveto
            -89 hlineto
            -56 -27 -23 return
          </CharString>
          <CharString index="248">
            1548 rmoveto
            81 65 59 81 81 -65 58 -81 -81 return
          </CharString>
          <CharString index="249">
            -219 356 -229 0 -219 -356 rlineto
            endchar
          </CharString>
          <CharString index="250">
            rmoveto
            -380 -178 -240 -285 -10 vhcurveto
            -61 -2 return
          </CharString>
          <CharString index="251">
            131 -2 hvcurveto
            -91 hlineto
            -47 -1 -27 -21 -52 hhcurveto
            return
          </CharString>
          <CharString index="252">
            1343 884 hmoveto
            156 callsubr
            return
          </CharString>
          <CharString index="253">
            -926 vlineto
            -357 -66 -62 callgsubr
          </CharString>
          <CharString index="254">
            -302 211 -54 0 -302 -211 rlineto
            return
          </CharString>
          <CharString index="255">
            714 78 vlineto
            -128 19 -23 32 100 vvcurveto
            return
          </CharString>
          <CharString index="256">
            648 78 vlineto
            -113 18 -21 22 80 vvcurveto
            return
          </CharString>
          <CharString index="257">
            87 219 -10 hvcurveto
            -84 hlineto
            -88 -1 -26 -33 return
          </CharString>
          <CharString index="258">
            rmoveto
            192 151 95 190 28 hvcurveto
            -179 77 191 -106 199 hhcurveto
            191 161 67 105 83 hvcurveto
            77 vlineto
            -43 -50 -86 -30 -86 hhcurveto
            -194 -143 126 237 -34 hvcurveto
            610 hlineto
            4 20 2 33 33 vvcurveto
            262 -177 173 -285 -124 -118 -45 -68 -68 vhcurveto
            73 -58 -121 40 -169 hhcurveto
            -269 -176 -114 -143 -88 68 -64 95 102 76 68 89 56 -31 49 -47 26 hvcurveto
            8 31 34 5 36 hhcurveto
            152 89 -80 -184 hvcurveto
            -71 vlineto
            -205 -35 rlineto
            -315 -50 -124 -116 -161 vvcurveto
            -165 130 -90 178 vhcurveto
            672 656 rmoveto
            195 58 108 98 89 39 -99 -168 -26 0 -19 -1 -16 vhcurveto
            -283 -2 rlineto
            9 0 9 9 vvcurveto
            -483 -490 rmoveto
            -69 -47 51 96 110 63 69 147 29 hvcurveto
            53 9 rlineto
            -154 vlineto
            -151 -66 -59 -81 vhcurveto
            endchar
          </CharString>
          <CharString index="259">
            rmoveto
            -1098 hlineto
            -525 -1106 -99 -210 -47 -33 -100 -17 rlinecurve
            -78 446 78 vlineto
            -129 21 -22 45 84 191 rrcurveto
            111 250 419 0 4 -379 rlineto
            -87 -21 -23 -108 -18 vhcurveto
            -78 1128 vlineto
            11 456 rlineto
            -73 hlineto
            -63 -280 -70 -64 -253 -14 rrcurveto
            -158 -9 -6 604 133 -3 109 -5 32 -48 30 -158 rlinecurve
            70 hlineto
            -5 516 rlineto
            -70 hlineto
            -28 -156 -30 -49 -110 -5 rrcurveto
            -133 -3 -6 573 137 -7 250 -14 68 -65 60 -241 rlinecurve
            74 hlineto
            -1050 325 rmoveto
            68 hlineto
            8 -665 rlineto
            -372 hlineto
            endchar
          </CharString>
          <CharString index="260">
            1548 617 206 rmoveto
            478 91 vlineto
            359 -684 rlineto
            488 74 hlineto
            -64 26 -35 39 -122 227 rrcurveto
            -332 629 135 138 163 162 70 44 129 27 rlinecurve
            78 -489 -78 vlineto
            126 -19 14 -37 -107 -128 rrcurveto
            -336 -402 -90 -1 rlineto
            459 vlineto
            85 20 23 110 20 vhcurveto
            78 -693 -78 vlineto
            117 -21 22 -24 -90 vvcurveto
            -74 callsubr
            693 78 vlineto
            -110 19 -20 24 85 vvcurveto
            return
          </CharString>
          <CharString index="261">
            rmoveto
            236 -1 -196 156 -432 hhcurveto
            -726 -78 hlineto
            118 -20 21 -25 -90 vvcurveto
            -1018 vlineto
            -89 -21 -24 -118 -22 vhcurveto
            -78 -35 callsubr
            428 130 vlineto
            289 -634 rlineto
            469 74 hlineto
            -55 20 -39 39 -89 185 rrcurveto
            -187 399 171 50 104 120 -1 165 rlinecurve
            -421 -22 rmoveto
            -188 -124 -108 -173 -8 vhcurveto
            -74 -3 0 632 66 -3 rlineto
            203 -9 102 -127 -186 vvcurveto
            return
          </CharString>
          <CharString index="262">
            rmoveto
            323 -178 196 -234 -162 -120 -82 -115 -46 vhcurveto
            191 vlineto
            -510 -63 0 -74 55 -17 rlineto
            54 -18 10 -16 -68 vvcurveto
            -1049 vlineto
            -72 -18 -22 -101 -15 vhcurveto
            -78 149 callsubr
            -17 callgsubr
            -120 -62 -51 32 39 -18 vhcurveto
            597 vlineto
            49 23 48 32 63 hhcurveto
            118 79 -138 -236 hvcurveto
            endchar
          </CharString>
          <CharString index="263">
            466 74 hlineto
            -57 22 -42 38 -105 207 rrcurveto
            -208 400 14 12 149 123 71 38 121 25 rlinecurve
            78 -480 -78 vlineto
            131 -23 5 -52 -101 -96 -211 -211 rcurveline
            -73 951 hlineto
            -67 callsubr
            -62 callsubr
            -94 callsubr
            285 vlineto
            77 -1 rlineto
            return
          </CharString>
          <CharString index="264">
            78 vlineto
            -45 -50 -92 -28 -88 hhcurveto
            -199 -161 147 265 218 113 133 165 34 32 -6 -11 28 hvcurveto
            -72 -17 -52 -66 -79 vvcurveto
            -93 75 -73 96 94 78 71 105 162 -151 124 -261 -331 -254 -210 -326 return
          </CharString>
          <CharString index="265">
            77 119 49 vhcurveto
            -188 vlineto
            511 56 0 73 -55 17 rlineto
            -56 18 -9 17 68 vvcurveto
            1269 vlineto
            -515 -60 0 -74 54 -17 rlineto
            57 -18 8 -16 -68 vvcurveto
            -333 vlineto
            72 -43 -111 48 -119 hhcurveto
            -252 -211 -190 -351 hvcurveto
            return
          </CharString>
          <CharString index="266">
            53 -652 rmoveto
            158 hlineto
            898 1444 rlineto
            -158 hlineto
            -944 -722 52 callgsubr
            1147 -737 rmoveto
            43 callsubr
            -85 callgsubr
            -221 -159 -162 -241 -241 159 -163 214 hvcurveto
            return
          </CharString>
          <CharString index="267">
            213 149 117 150 92 -59 59 -87 -81 -59 -64 -78 -68 45 -55 59 -11 hvcurveto
            -31 -45 -62 -19 -73 hhcurveto
            -73 -62 19 31 -45 hvcurveto
            59 11 45 55 68 vvcurveto
            78 -60 64 -79 -89 -58 -59 -92 -151 149 -116 213 vhcurveto
            return
          </CharString>
          <CharString index="268">
            rmoveto
            160 110 72 118 117 -99 68 -131 -97 -74 -38 -47 -31 hvcurveto
            -66 vlineto
            18 8 30 6 30 -1 rrcurveto
            57 -1 42 -21 -41 vvcurveto
            -41 -39 -23 -31 callsubr
            -68 vlineto
            -47 42 83 -33 100 hhcurveto
            endchar
          </CharString>
          <CharString index="269">
            1901 rmoveto
            -214 -108 -139 -144 -20 2 -21 3 -16 hvcurveto
            87 2 hlineto
            89 97 60 133 132 99 -61 -88 vhcurveto
            -2 87 vlineto
            3 17 2 20 20 vvcurveto
            144 -109 139 -214 vhcurveto
            return
          </CharString>
          <CharString index="270">
            rmoveto
            124 76 85 154 -3 hvcurveto
            -89 hlineto
            -56 -27 -23 -51 -29 -32 7 14 -40 vhcurveto
            -39 13 rlineto
            18 -51 -50 13 -53 hhcurveto
            -124 -76 -85 -154 3 hvcurveto
            89 hlineto
            56 106 callgsubr
            endchar
          </CharString>
          <CharString index="271">
            -320 246 -205 347 hvcurveto
            8 102 rmoveto
            -117 -71 159 277 266 60 155 118 117 71 -160 -276 -266 -59 -155 -119 hvcurveto
            return
          </CharString>
          <CharString index="272">
            -285 -87 -60 -291 -13 rrcurveto
            -213 -9 725 1281 rlineto
            74 -1165 vlineto
            -13 -417 rlineto
            74 hlineto
            58 241 77 66 282 13 rrcurveto
            215 8 return
          </CharString>
          <CharString index="273">
            53 197 55 55 183 11 rrcurveto
            118 5 -495 -859 rlineto
            -70 929 vlineto
            5 374 rlineto
            -75 hlineto
            -44 -212 -65 -62 -179 -9 rrcurveto
            -137 -5 return
          </CharString>
          <CharString index="274">
            1561 rmoveto
            214 72 callgsubr
            -97 -60 -133 -132 -99 99 callsubr
            return
          </CharString>
          <CharString index="275">
            -27 -24 -51 -29 -32 8 14 -40 vhcurveto
            -39 13 rlineto
            17 -51 -50 13 -53 hhcurveto
            -124 -76 -85 -153 3 hvcurveto
            89 hlineto
            55 27 24 51 29 32 -8 -14 return
          </CharString>
          <CharString index="276">
            hhcurveto
            -203 -139 134 276 hvcurveto
            669 vlineto
            90 22 24 119 21 vhcurveto
            78 -694 -78 vlineto
            109 -19 21 -24 -87 vvcurveto
            return
          </CharString>
          <CharString index="277">
            248 81 127 118 62 51 -33 -39 18 vhcurveto
            -597 vlineto
            -47 -22 -50 -34 -64 hhcurveto
            -114 -80 130 245 hvcurveto
            return
          </CharString>
          <CharString index="278">
            vlineto
            -72 -19 -22 -100 -15 vhcurveto
            -78 149 callsubr
            return
          </CharString>
          <CharString index="279">
            -471 rmoveto
            148 127 67 126 123 -112 67 -133 hvcurveto
            -9 -9 -1 -9 hhcurveto
            80 89 rlineto
            return
          </CharString>
          <CharString index="280">
            112 90 91 111 111 -90 91 -112 -112 -90 -91 -111 -111 90 -91 112 hvcurveto
            endchar
          </CharString>
          <CharString index="281">
            1541 rmoveto
            -134 -98 -67 -74 -45 hvcurveto
            1 -66 rlineto
            24 28 51 17 55 hhcurveto
            71 46 -30 -54 -52 return
          </CharString>
          <CharString index="282">
            184 144 213 vvcurveto
            146 -88 99 -128 -133 -80 -110 -138 vhcurveto
            103 -5 70 -61 return
          </CharString>
          <CharString index="283">
            369 hmoveto
            66 54 42 61 60 -54 42 -66 hvcurveto
            -15 hlineto
            -67 -54 -42 -60 -61 54 -42 67 hvcurveto
            return
          </CharString>
          <CharString index="284">
            1541 rmoveto
            -135 -98 -67 -74 -44 hvcurveto
            -66 vlineto
            24 28 51 17 55 hhcurveto
            71 return
          </CharString>
          <CharString index="285">
            1131 rmoveto
            225 386 rlineto
            9 -317 vlineto
            -7 -395 rlineto
            -229 30 rmoveto
            return
          </CharString>
          <CharString index="286">
            148 127 68 125 123 -112 67 -133 hvcurveto
            -8 -9 -1 -7 hhcurveto
            return
          </CharString>
          <CharString index="287">
            -132 -97 -74 -38 -47 -31 hvcurveto
            -66 vlineto
            18 8 30 6 30 -1 rrcurveto
            57 -1 return
          </CharString>
          <CharString index="288">
            337 82 337 -82 0 66 -310 179 -55 0 -309 -179 rlineto
            return
          </CharString>
          <CharString index="289">
            70 rmoveto
            -71 -42 87 250 249 37 81 70 72 42 88 callsubr
            return
          </CharString>
          <CharString index="290">
            1534 rmoveto
            412 298 rlineto
            8 -396 vlineto
            -114 -306 rlineto
            return
          </CharString>
          <CharString index="291">
            1155 rmoveto
            105 84 75 102 103 -84 74 -105 -104 -46 callsubr
            return
          </CharString>
          <CharString index="292">
            1155 rmoveto
            104 85 75 102 103 -85 74 -104 -104 -46 callsubr
            return
          </CharString>
          <CharString index="293">
            -260 184 -99 0 236 -395 247 0 235 395 rlineto
            return
          </CharString>
          <CharString index="294">
            -84 -87 -220 10 hvcurveto
            84 hlineto
            89 1 26 33 47 hhcurveto
            31 25 -12 -26 return
          </CharString>
          <CharString index="295">
            rmoveto
            205 35 175 callsubr
            -89 vvcurveto
            -87 -67 -56 -89 -18 vhcurveto
            endchar
          </CharString>
          <CharString index="296">
            rmoveto
            344 250 219 315 150 -54 124 -92 90 hvcurveto
            98 95 -63 65 -105 -103 rlineto
            66 -99 -128 36 -145 hhcurveto
            -344 -250 -217 -316 -151 56 -126 94 -90 hvcurveto
            -92 -90 63 -65 100 98 rlineto
            -64 98 126 -36 143 hhcurveto
            -185 537 rmoveto
            266 62 156 121 81 60 -74 -134 31 vhcurveto
            -350 -342 rlineto
            -3 40 -2 42 46 vvcurveto
            193 -437 rmoveto
            -80 -59 71 130 -31 hvcurveto
            348 341 rlineto
            4 -37 2 -41 -43 vvcurveto
            -266 -63 -155 -121 vhcurveto
            endchar
          </CharString>
          <CharString index="297">
            -219 79 -183 135 -130 vhcurveto
            -130 -136 67 -66 135 142 rlineto
            -98 134 174 -55 197 hhcurveto
            474 313 327 425 219 -80 182 -135 130 hvcurveto
            130 136 -67 66 -135 -141 rlineto
            98 -134 -174 54 -196 -69 callgsubr
            130 97 -107 -179 54 vhcurveto
            -576 -604 rlineto
            -14 78 -7 87 94 vvcurveto
            643 -23 rmoveto
            -381 -93 -251 -222 -131 -97 108 178 -53 vhcurveto
            575 605 rlineto
            14 -78 7 -87 -94 vvcurveto
            endchar
          </CharString>
          <CharString index="298">
            14 -14 18 71 vvcurveto
            603 vlineto
            45 22 54 33 70 hhcurveto
            91 57 -58 -118 hvcurveto
            -505 vlineto
            -71 -14 -18 -82 -14 vhcurveto
            -78 587 78 vlineto
            -82 14 -14 18 71 vvcurveto
            544 vlineto
            23 -2 20 -3 19 vhcurveto
            45 24 54 30 70 hhcurveto
            93 57 -58 -118 hvcurveto
            -505 vlineto
            -71 -14 -17 -82 -15 vhcurveto
            -78 610 78 vlineto
            -100 16 -19 21 73 vvcurveto
            520 vlineto
            217 -133 113 -207 -183 -132 -88 -112 -46 vhcurveto
            130 -35 -123 70 -165 hhcurveto
            -182 -129 -87 -111 -45 hvcurveto
            return
          </CharString>
          <CharString index="299">
            rmoveto
            -288 167 -165 215 189 118 127 173 59 vhcurveto
            -172 41 111 -128 205 hhcurveto
            265 189 255 337 290 -111 177 -160 -151 -80 -155 -160 66 hvcurveto
            164 -25 110 -139 -166 vvcurveto
            -131 -69 -78 -103 -127 -77 114 264 vhcurveto
            220 -329 -224 vlineto
            -281 -55 -89 -93 -91 -49 100 192 207 59 192 120 105 vhcurveto
            -49 55 rlineto
            -335 -67 -199 -238 -302 vvcurveto
            endchar
          </CharString>
          <CharString index="300">
            rmoveto
            171 103 99 178 88 hvcurveto
            -187 44 83 -85 145 hhcurveto
            106 92 53 80 56 hvcurveto
            74 vlineto
            -12 -14 -22 -9 -26 hhcurveto
            -64 -56 48 230 -59 hvcurveto
            -13 53 229 516 rlineto
            -349 hlineto
            -15 -76 -20 -85 -23 -86 rrcurveto
            171 -72 -114 98 -201 hhcurveto
            -276 -188 -224 -320 -337 178 -179 217 hvcurveto
            10 555 rmoveto
            249 52 138 89 83 38 -83 -215 32 vhcurveto
            36 -243 rlineto
            -152 -55 -53 -66 -72 hhcurveto
            -95 -55 131 241 hvcurveto
            endchar
          </CharString>
          <CharString index="301">
            rmoveto
            267 185 107 165 88 hvcurveto
            -1 77 -69 -64 -130 -44 -142 -2 rlinecurve
            -145 -1 -88 43 78 vvcurveto
            80 82 43 164 vhcurveto
            69 hlineto
            -54 224 rlineto
            -44 hlineto
            -169 -74 46 77 74 75 52 151 61 54 -8 -13 45 hvcurveto
            -41 -22 -29 -44 -55 vvcurveto
            -74 52 -61 93 78 62 63 80 128 -133 111 -324 -328 -179 -122 -175 -161 141 -88 220 -8 vhcurveto
            -247 -12 -137 -85 -143 vvcurveto
            -168 182 -98 265 vhcurveto
            endchar
          </CharString>
          <CharString index="302">
            206 -103 155 -160 78 hvcurveto
            -14 54 60 -8 60 hhcurveto
            156 109 66 118 1 hvcurveto
            1 108 -88 107 -137 50 rrcurveto
            -77 hlineto
            24 -28 18 -58 -58 vvcurveto
            -124 -1 -89 -98 -166 -82 -73 24 -111 hhcurveto
            -345 -243 -225 -310 -320 242 -205 351 hvcurveto
            8 102 rmoveto
            -118 -70 161 275 267 58 154 120 118 70 -161 -276 -267 -58 -153 -120 hvcurveto
            return
          </CharString>
          <CharString index="303">
            rmoveto
            -103 88 -76 111 169 112 116 260 138 vhcurveto
            437 831 72 138 30 27 110 20 rlinecurve
            78 -430 -78 vlineto
            148 -20 13 -26 -66 -140 rrcurveto
            -240 -499 -265 526 -59 116 5 26 139 17 rlinecurve
            78 -737 -78 vlineto
            103 -19 29 -29 64 -115 rrcurveto
            505 -922 -42 -77 -40 -54 -45 -35 rlinecurve
            2 11 1 12 13 vvcurveto
            98 -77 82 -99 -100 -76 -81 -97 vhcurveto
            endchar
          </CharString>
          <CharString index="304">
            rmoveto
            111 93 55 76 36 hvcurveto
            75 vlineto
            -14 -13 -22 -9 -28 hhcurveto
            -74 -62 95 120 21 4 25 7 20 hvcurveto
            313 26 220 211 296 vvcurveto
            -101 callsubr
            -307 227 -202 325 -15 vhcurveto
            -102 -71 -70 -92 -99 vvcurveto
            -117 100 -83 127 vhcurveto
            -6 563 rmoveto
            -117 -71 159 277 266 60 155 118 117 71 -160 -276 -266 -59 -155 -119 hvcurveto
            endchar
          </CharString>
          <CharString index="305">
            rmoveto
            327 -176 192 -234 -159 -122 -76 -119 -49 vhcurveto
            4 663 -514 -63 0 -74 -32 callsubr
            -1251 231 vlineto
            121 134 rlineto
            -88 47 116 -67 145 hhcurveto
            257 214 190 351 hvcurveto
            -405 -32 rmoveto
            -247 -81 -128 -119 -62 -50 34 39 -19 vhcurveto
            596 vlineto
            48 23 50 32 63 hhcurveto
            115 80 -129 -245 hvcurveto
            return
          </CharString>
          <CharString index="306">
            407 hlineto
            35 -9 725 -1 vvcurveto
            57 22 52 35 72 hhcurveto
            102 56 -66 -177 -300 -5 -344 -11 -424 hvcurveto
            408 hlineto
            -4 1101 rlineto
            282 -139 115 -216 -189 -126 -96 -123 -38 vhcurveto
            132 -16 -78 83 -147 hhcurveto
            -109 -98 -48 -54 -53 hvcurveto
            -74 vlineto
            6 10 19 3 19 hhcurveto
            70 29 -40 -112 -2 hvcurveto
            -55 -18 -499 -8 -161 vhcurveto
            endchar
          </CharString>
          <CharString index="307">
            183 125 83 115 50 vhcurveto
            -190 vlineto
            521 56 0 73 -59 17 rlineto
            -60 19 -10 16 67 vvcurveto
            712 vlineto
            -2 17 19 -1 20 hhcurveto
            123 95 63 116 1 hvcurveto
            1 107 -92 103 -142 48 rrcurveto
            -77 hlineto
            22 -26 19 -53 -61 vvcurveto
            -143 -104 -86 -289 -29 vhcurveto
            -134 -14 0 -73 56 -17 rlineto
            60 -19 10 -15 -68 vvcurveto
            -72 callgsubr
            return
          </CharString>
          <CharString index="308">
            rmoveto
            710 vlineto
            242 -14 0 124 -242 -14 rlineto
            216 vlineto
            137 52 55 84 2 vhcurveto
            -30 -23 -18 -36 -42 vvcurveto
            -77 58 -55 75 73 59 55 77 118 -102 92 -212 -252 -178 -144 -284 vhcurveto
            -82 vlineto
            -122 -49 rlineto
            -71 118 -706 vlineto
            -72 -18 -22 -100 -15 vhcurveto
            -78 648 78 vlineto
            -114 18 -21 22 80 vvcurveto
            endchar
          </CharString>
          <CharString index="309">
            1977 rmoveto
            -90 -74 -35 -47 -44 hvcurveto
            -49 vlineto
            14 27 50 13 47 hhcurveto
            75 38 -27 -34 -36 -37 -28 -82 -15 hvcurveto
            66 -38 rlineto
            154 22 79 47 82 vvcurveto
            79 -89 52 -120 vhcurveto
            -623 -480 rmoveto
            181 callsubr
            return
          </CharString>
          <CharString index="310">
            718 vlineto
            366 329 141 284 hvcurveto
            -487 645 rmoveto
            -177 -95 -86 -165 -2 vhcurveto
            -103 -1 0 551 64 -3 rlineto
            203 -7 96 -108 -167 vvcurveto
            42 -661 rmoveto
            -197 -124 -113 -217 -7 vhcurveto
            -64 -3 0 626 103 -2 rlineto
            196 -4 106 -124 -176 vvcurveto
            return
          </CharString>
          <CharString index="311">
            -199 -146 125 234 -35 hvcurveto
            622 hlineto
            4 20 2 32 33 vvcurveto
            265 -179 175 -296 -330 -227 -216 -320 vhcurveto
            395 130 rmoveto
            195 59 110 104 91 43 -100 -169 -27 0 -19 -1 -17 vhcurveto
            -295 -2 rlineto
            -1 9 0 10 10 vvcurveto
            return
          </CharString>
          <CharString index="312">
            1038 70 1017 -45 callsubr
            166 callsubr
            495 861 rlineto
            70 vlineto
            return
          </CharString>
          <CharString index="313">
            rmoveto
            338 251 215 320 323 -239 202 -345 -339 -252 -214 -320 -323 240 -203 346 hvcurveto
            7 102 rmoveto
            -116 -64 162 276 266 55 153 116 114 65 -162 -277 -266 -55 -152 -115 hvcurveto
            endchar
          </CharString>
          <CharString index="314">
            401 -1150 322 0 399 1129 65 186 32 33 108 19 rlinecurve
            78 -442 -78 vlineto
            140 -22 20 -38 -55 -176 rrcurveto
            -266 -833 -273 843 -54 167 24 39 134 20 rlinecurve
            78 -754 -78 vlineto
            108 -19 34 -35 57 -163 rrcurveto
            return
          </CharString>
          <CharString index="315">
            rmoveto
            286 vlineto
            83 -1 235 -466 rlineto
            459 74 hlineto
            -61 22 -37 46 -96 195 rrcurveto
            -204 399 14 15 153 144 63 24 110 20 rlinecurve
            78 -444 -78 vlineto
            116 -20 11 -42 -99 -99 rrcurveto
            -221 -220 -82 -1 rlineto
            279 119 callsubr
          </CharString>
          <CharString index="316">
            294 -770 251 0 285 741 60 157 25 24 84 18 rlinecurve
            78 -367 -78 vlineto
            113 -14 12 -32 -46 -144 rrcurveto
            -142 -431 -140 431 -44 145 11 31 116 14 rlinecurve
            78 -668 -78 vlineto
            83 -18 25 -27 48 -125 rrcurveto
            return
          </CharString>
          <CharString index="317">
            rmoveto
            197 -167 114 -296 vhcurveto
            -192 190 hlineto
            80 21 22 113 18 vhcurveto
            78 -648 -78 vlineto
            20 callsubr
            717 53 callgsubr
            64 -85 -134 vvcurveto
            -133 -73 -82 -124 -7 vhcurveto
            -59 -2 rlineto
            448 vlineto
            endchar
          </CharString>
          <CharString index="318">
            292 520 87 156 32 30 104 19 rlinecurve
            78 -423 -78 vlineto
            129 -18 14 -37 -77 -155 rrcurveto
            -207 -414 -224 424 -76 147 15 37 125 16 rlinecurve
            78 -735 -78 vlineto
            98 -19 33 -32 81 -142 rrcurveto
            return
          </CharString>
          <CharString index="319">
            1537 1467 425 rmoveto
            227 -192 125 -288 14 vhcurveto
            222 12 197 101 195 vvcurveto
            227 -235 118 -399 vhcurveto
            -718 -65 callsubr
            -107 callsubr
            203 callsubr
            return
          </CharString>
          <CharString index="320">
            -482 rmoveto
            107 101 43 67 44 hvcurveto
            -1 75 rlineto
            -15 -18 -32 -11 -36 hhcurveto
            -56 -47 36 73 82 53 79 133 95 hvcurveto
            -92 -1 rlineto
            -278 -116 -99 -117 -110 vvcurveto
            -116 95 -64 126 vhcurveto
            endchar
          </CharString>
          <CharString index="321">
            445 vlineto
            146 -3 112 -4 32 -48 29 -158 rlinecurve
            70 516 -70 hlineto
            -30 -158 -31 -48 -112 -4 rrcurveto
            -146 -3 0 591 148 -7 256 -14 73 -63 56 -244 rlinecurve
            75 hlineto
            endchar
          </CharString>
          <CharString index="322">
            -68 -70 -46 -149 -12 hvcurveto
            -59 vlineto
            2 13 22 1 17 hhcurveto
            105 77 -62 -98 -89 -64 -55 -88 -33 -29 9 13 -23 hvcurveto
            38 11 27 35 40 vvcurveto
            52 -42 38 -53 -57 -40 -41 -53 -99 111 -83 171 vhcurveto
            return
          </CharString>
          <CharString index="323">
            -1 -26 -24 -51 hhcurveto
            -29 -32 8 14 -40 hvcurveto
            -39 13 rlineto
            17 -51 -50 13 -53 hhcurveto
            -124 -76 -85 -153 3 hvcurveto
            89 hlineto
            55 27 24 51 29 32 -8 -14 39 vhcurveto
            40 -13 rlineto
            -17 50 51 -13 53 hhcurveto
            return
          </CharString>
          <CharString index="324">
            52 197 56 55 183 11 rrcurveto
            117 5 -495 -859 rlineto
            -70 929 vlineto
            6 374 rlineto
            -75 hlineto
            -44 -212 -65 -62 -179 -9 rrcurveto
            -138 -5 496 861 rlineto
            70 vlineto
            endchar
          </CharString>
          <CharString index="325">
            811 76 rmoveto
            942 vlineto
            90 21 24 119 21 vhcurveto
            78 -704 -78 vlineto
            119 -21 21 -24 -90 vvcurveto
            -926 vlineto
            -357 -66 -145 -206 -135 vhcurveto
            31 234 callsubr
          </CharString>
          <CharString index="326">
            462 1466 rmoveto
            -205 -35 -184 -145 -212 vvcurveto
            -147 88 -99 127 134 80 111 138 vhcurveto
            -103 4 -70 61 90 vvcurveto
            87 67 55 89 19 vhcurveto
            return
          </CharString>
          <CharString index="327">
            283 1477 rmoveto
            -104 -75 -62 -104 -2 hvcurveto
            -67 23 -58 41 -116 vhcurveto
            92 -264 49 0 93 264 39 114 25 60 -1 67 rlinecurve
            104 -1 -76 62 -103 hhcurveto
            return
          </CharString>
          <CharString index="328">
            1886 rmoveto
            -117 -85 -55 -62 -39 hvcurveto
            -56 vlineto
            20 25 87 callsubr
            -34 -42 -87 -49 hvcurveto
            80 hlineto
            185 57 72 62 80 vvcurveto
            87 -81 59 -119 vhcurveto
            return
          </CharString>
          <CharString index="329">
            113 -14 10 -31 -46 -133 rrcurveto
            -140 -403 -138 404 -44 132 9 32 116 13 rlinecurve
            78 -661 -78 vlineto
            82 -18 22 -24 53 -128 rrcurveto
            return
          </CharString>
          <CharString index="330">
            rmoveto
            224 149 113 154 -113 474 -210 hlineto
            -373 -502 rlineto
            -126 359 vlineto
            -1 154 rmoveto
            -234 hlineto
            235 344 rlineto
            endchar
          </CharString>
          <CharString index="331">
            rmoveto
            207 148 120 173 176 -144 111 -207 -207 -147 -120 -173 -175 143 -112 207 hvcurveto
            5 67 rmoveto
            -61 -34 return
          </CharString>
          <CharString index="332">
            -392 rlineto
            74 hlineto
            49 232 77 52 210 15 23 1 rcurveline
            -1123 vlineto
            -100 -23 -32 -127 -19 vhcurveto
            -78 715 78 vlineto
            -119 20 -22 24 93 vvcurveto
            return
          </CharString>
          <CharString index="333">
            -23 4 -19 hvcurveto
            90 2 hlineto
            102 108 67 149 148 109 -69 -100 vhcurveto
            -2 90 vlineto
            4 19 1 23 24 vvcurveto
            166 -116 160 -236 vhcurveto
            return
          </CharString>
          <CharString index="334">
            rmoveto
            -116 121 -76 171 171 121 75 117 114 -120 78 -172 -171 -121 -77 -115 vhcurveto
            209 hmoveto
            71 35 49 48 48 return
          </CharString>
          <CharString index="335">
            -25 vhcurveto
            -88 vlineto
            -294 5 -190 54 -70 165 rrcurveto
            return
          </CharString>
          <CharString index="336">
            -29 -18 -102 -11 vhcurveto
            -53 511 53 vlineto
            -101 11 -29 18 return
          </CharString>
          <CharString index="337">
            -38 -90 hvcurveto
            -41 vlineto
            -115 -23 rlineto
            -193 -36 -66 -64 return
          </CharString>
          <CharString index="338">
            -55 hhcurveto
            -127 -77 -72 -131 3 hvcurveto
            91 hlineto
            47 27 return
          </CharString>
          <CharString index="339">
            -31 callsubr
            -68 vlineto
            -47 42 83 -33 101 hhcurveto
            endchar
          </CharString>
          <CharString index="340">
            -67 165 callsubr
            -724 -1281 rlineto
            -74 vlineto
            return
          </CharString>
          <CharString index="341">
            -67 rlineto
            438 153 227 166 369 vvcurveto
            endchar
          </CharString>
          <CharString index="342">
            -90 hlineto
            -88 -1 -26 -33 -46 hhcurveto
            -30 -74 callgsubr
            return
          </CharString>
          <CharString index="343">
            hlineto
            -272 -69 40 220 -50 hvcurveto
            -74 hlineto
            19 -547 return
          </CharString>
          <CharString index="344">
            hlineto
            1 194 -395 -49 rlineto
            -145 -121 vlineto
            endchar
          </CharString>
        <CharString name=".notdef">
          2048 112 -494 rmoveto
          -13 callgsubr
          -13 callgsubr
          187 2444 -187 hlineto
          endchar
        </CharString>
        <CharString name=".null">
          0 endchar
        </CharString>
        <CharString name="A">
          1517 1328 295 -100 callsubr
        </CharString>
        <CharString name="AE">
          1959 1852 1444 152 callsubr
        </CharString>
        <CharString name="AEacute">
          1959 1171 -63 callsubr
          778 -90 152 callsubr
        </CharString>
        <CharString name="AEmacron">
          1959 908 2 callsubr
          944 -310 152 callsubr
        </CharString>
        <CharString name="Aacute">
          1517 704 -63 callsubr
          721 -1239 -100 callsubr
        </CharString>
        <CharString name="Abreve">
          1517 755 132 callsubr
          -132 -98 99 callsubr
          -2 -19 callsubr
          573 -1266 -100 callsubr
        </CharString>
        <CharString name="Abreveacute">
          1517 1093 90 callsubr
          337 -257 rmoveto
          209 136 90 150 -7 hvcurveto
          -91 84 callsubr
          -101 36 53 -7 hvcurveto
          -91 83 callsubr
          573 -1238 -100 callsubr
        </CharString>
        <CharString name="Abrevecyrillic">
          1517 755 -18 callgsubr
          573 -1260 -100 callsubr
        </CharString>
        <CharString name="Abrevedotbelow">
          1517 755 132 callsubr
          -132 -98 99 callsubr
          -2 -19 callsubr
          573 -1266 rmoveto
          -9 callsubr
          60 callsubr
          -115 -707 -71 callsubr
        </CharString>
        <CharString name="Abrevegrave">
          1517 418 -87 callgsubr
          337 -514 rmoveto
          209 136 90 150 -7 hvcurveto
          -91 84 callsubr
          -101 36 53 -7 hvcurveto
          -91 83 callsubr
          573 -1238 -100 callsubr
        </CharString>
        <CharString name="Abrevehookabove">
          1517 745 39 callgsubr
          78 40 -26 -36 -36 -39 -28 -86 -14 hvcurveto
          69 -39 rlineto
          160 23 84 47 81 vvcurveto
          80 -92 52 -126 vhcurveto
          10 -500 rmoveto
          209 136 90 150 -7 hvcurveto
          -91 84 callsubr
          -101 36 53 -7 hvcurveto
          -91 83 callsubr
          573 -1238 -100 callsubr
        </CharString>
        <CharString name="Abrevetilde">
          1517 891 1822 rmoveto
          128 76 73 144 callsubr
          -30 -32 7 12 -41 hvcurveto
          -40 11 rlineto
          14 -53 -51 12 231 callsubr
          20 52 31 32 -6 -12 40 vhcurveto
          -95 callgsubr
          -136 -289 rmoveto
          209 136 90 150 -7 hvcurveto
          -91 84 callsubr
          -101 36 53 -7 hvcurveto
          -91 83 callsubr
          573 -1238 -100 callsubr
        </CharString>
        <CharString name="Acaron">
          1517 1016 -39 callsubr
          26 callsubr
          216 -1559 -100 callsubr
        </CharString>
        <CharString name="Acircumflex">
          1517 529 -54 callsubr
          122 callsubr
          894 -1239 -100 callsubr
        </CharString>
        <CharString name="Acircumflexacute">
          1517 1093 1858 4 callsubr
          -273 vmoveto
          337 82 338 -22 callsubr
          910 -1268 -100 callsubr
        </CharString>
        <CharString name="Acircumflexdotbelow">
          1517 529 -54 callsubr
          122 callsubr
          894 -1239 rmoveto
          -9 callsubr
          60 callsubr
          -115 -707 -71 callsubr
        </CharString>
        <CharString name="Acircumflexgrave">
          1517 418 1858 -106 callgsubr
          -530 vmoveto
          337 82 338 -22 callsubr
          910 -1268 -100 callsubr
        </CharString>
        <CharString name="Acircumflexhookabove">
          1517 1041 0 callgsubr
          -37 -28 -82 8 callgsubr
          337 82 338 -22 callsubr
          910 -1268 -100 callsubr
        </CharString>
        <CharString name="Acircumflextilde">
          1517 891 1 callgsubr
          -53 -51 11 231 callsubr
          21 52 31 32 -7 -12 40 vhcurveto
          105 callgsubr
          337 82 338 -22 callsubr
          910 -1268 -100 callsubr
        </CharString>
        <CharString name="Acyrillic">
          1517 1328 295 -100 callsubr
        </CharString>
        <CharString name="Adblgrave">
          1517 601 1840 rmoveto
          -346 -92 callgsubr
          -42 callgsubr
          313 -1239 -100 callsubr
        </CharString>
        <CharString name="Adieresis">
          1517 573 22 callsubr
          7 callsubr
          390 -1253 -100 callsubr
        </CharString>
        <CharString name="Adieresismacron">
          1517 417 77 callgsubr
          54 42 61 callgsubr
          176 callsubr
          403 -1255 -100 callsubr
        </CharString>
        <CharString name="Adotaccent">
          1517 755 35 callsubr
          573 -1242 -100 callsubr
        </CharString>
        <CharString name="Adotbelow">
          1517 1328 295 rmoveto
          -9 callsubr
          60 callsubr
          -115 -707 -71 callsubr
        </CharString>
        <CharString name="Adotmacron">
          1517 417 78 callgsubr
          -57 -47 -66 -65 57 -47 72 hvcurveto
          573 -1245 -100 callsubr
        </CharString>
        <CharString name="Agrave">
          1517 841 -3 callsubr
          903 -1537 -100 callsubr
        </CharString>
        <CharString name="Ahookabove">
          1517 797 221 callsubr
          531 -1591 -100 callsubr
        </CharString>
        <CharString name="Ainvertedbreve">
          1517 755 162 callsubr
          573 -1606 -100 callsubr
        </CharString>
        <CharString name="Alphagreek">
          1517 1328 295 -100 callsubr
        </CharString>
        <CharString name="Alphatonosgreek">
          1517 1328 295 rmoveto
          -9 callsubr
          754 78 vlineto
          -108 19 -33 35 -58 163 rrcurveto
          -1130 754 -12 callsubr
          -333 vlineto
          -36 -395 rlineto
          321 -475 rmoveto
          186 574 189 -574 rlineto
          endchar
        </CharString>
        <CharString name="Amacron">
          1517 441 2 callsubr
          887 -1459 -100 callsubr
        </CharString>
        <CharString name="Aogonek">
          1517 1157 -4 callgsubr
          313 78 hlineto
          -108 19 -33 35 -58 163 rrcurveto
          -9 callsubr
          342 vlineto
          80 callgsubr
          -744 1057 rmoveto
          186 574 189 -574 rlineto
          endchar
        </CharString>
        <CharString name="Aring">
          1517 463 1735 rmoveto
          -116 121 -76 171 172 121 75 117 114 -121 78 -172 -171 -121 -77 -115 vhcurveto
          210 hmoveto
          71 34 49 48 48 35 -50 -70 -72 -35 -48 -48 -48 -34 48 72 vhcurveto
          655 -1440 -100 callsubr
        </CharString>
        <CharString name="Aringacute">
          1517 1093 1861 4 callsubr
          69 callgsubr
          -71 hlineto
          -154 -104 -44 -67 -67 104 -44 154 hvcurveto
          50 53 rmoveto
          -29 hlineto
          -46 -24 23 35 35 25 23 45 hvcurveto
          29 hlineto
          44 26 -23 -35 -35 -26 -23 -44 hvcurveto
          558 -1283 -100 callsubr
        </CharString>
        <CharString name="Aringbelow">
          1517 1328 295 rmoveto
          -9 callsubr
          60 callsubr
          -440 -858 rmoveto
          -117 135 36 callgsubr
          -135 -77 -116 vhcurveto
          234 38 callgsubr
        </CharString>
        <CharString name="Atilde">
          1517 886 -98 callgsubr
          -25 -33 -46 131 callsubr
          -119 -86 9 callsubr
          -39 callgsubr
          442 -1246 -100 callsubr
        </CharString>
        <CharString name="B">
          1537 1467 425 110 callsubr
        </CharString>
        <CharString name="Bdotaccent">
          1537 751 35 callsubr
          716 -1112 110 callsubr
        </CharString>
        <CharString name="Bdotbelow">
          212 callsubr
          -270 -542 -71 callsubr
        </CharString>
        <CharString name="Becyrillic">
          1491 1430 420 rmoveto
          268 -246 148 -385 vhcurveto
          -183 517 hlineto
          194 -6 271 -8 74 -50 59 -235 rlinecurve
          74 hlineto
          -12 390 rlineto
          -1222 -78 hlineto
          117 -21 22 -24 -90 vvcurveto
          -74 callsubr
          748 vlineto
          393 235 155 265 hvcurveto
          -446 -2 rmoveto
          -193 -97 -122 -195 -9 vhcurveto
          -76 -2 0 649 76 -3 rlineto
          187 -8 105 -121 -191 vvcurveto
          endchar
        </CharString>
        <CharString name="Betagreek">
          1537 1467 425 110 callsubr
        </CharString>
        <CharString name="Blinebelow">
          212 callsubr
          -596 -780 -79 callsubr
        </CharString>
        <CharString name="C">
          1458 81 720 -6 callsubr
          -26 callsubr
        </CharString>
        <CharString name="Cacute">
          1458 844 183 callsubr
          -665 -814 -6 callsubr
          -26 callsubr
        </CharString>
        <CharString name="Ccaron">
          1458 1155 136 callsubr
          -51 callgsubr
          -1170 -1134 -6 callsubr
          -26 callsubr
        </CharString>
        <CharString name="Ccedilla">
          1458 81 720 rmoveto
          -443 322 -274 435 -27 vhcurveto
          -117 -134 -100 callgsubr
          21 callsubr
          50 callsubr
          93 callsubr
          59 63 rlineto
          185 3 170 41 83 57 9 417 rcurveline
          -47 callgsubr
          -26 callsubr
        </CharString>
        <CharString name="Ccedillaacute">
          1458 844 183 callsubr
          -665 -814 rmoveto
          -443 322 -274 435 -27 vhcurveto
          -117 -134 -100 callgsubr
          21 callsubr
          50 callsubr
          93 callsubr
          59 63 rlineto
          185 3 170 41 83 57 9 417 rcurveline
          -47 callgsubr
          -26 callsubr
        </CharString>
        <CharString name="Ccircumflex">
          1458 669 1534 rmoveto
          243 137 243 -137 98 0 -55 callgsubr
          -492 -814 -6 callsubr
          -26 callsubr
        </CharString>
        <CharString name="Cdotaccent">
          1458 895 91 callsubr
          -814 -817 -6 callsubr
          -26 callsubr
        </CharString>
        <CharString name="Checyrillic">
          1688 1495 -55 callsubr
          -75 callsubr
          -693 -78 vlineto
          109 -18 20 -23 -87 vvcurveto
          -510 vlineto
          -25 -55 -77 -16 -85 hhcurveto
          -173 -92 93 209 hvcurveto
          249 vlineto
          87 21 23 108 18 vhcurveto
          78 -681 -78 vlineto
          108 -18 20 -23 -87 vvcurveto
          -231 vlineto
          -309 212 -145 310 163 138 32 44 83 vhcurveto
          -406 vlineto
          -96 -24 -29 -132 -20 vhcurveto
          -78 720 78 vlineto
          94 callsubr
        </CharString>
        <CharString name="Chigreek">
          1482 282 313 52 callsubr
        </CharString>
        <CharString name="D">
          1678 33 callsubr
          endchar
        </CharString>
        <CharString name="Dbar">
          1678 54 695 rmoveto
          139 -482 hlineto
          -90 -21 -24 -118 -21 vhcurveto
          -78 682 vlineto
          484 388 282 463 454 -350 245 -539 hvcurveto
          -665 -65 callsubr
          -446 -139 vlineto
          1087 -64 143 callsubr
          rlineto
          606 252 90 -252 570 vlineto
          61 -2 rlineto
          294 -10 169 -256 -366 vvcurveto
          endchar
        </CharString>
        <CharString name="Dcaron">
          1678 1060 1854 rmoveto
          -243 -137 -244 137 -97 0 74 callsubr
          452 -1109 109 callsubr
          endchar
        </CharString>
        <CharString name="Dcircumflexbelow">
          1678 33 callsubr
          -650 -1183 78 callsubr
          142 callsubr
        </CharString>
        <CharString name="Dcommaaccent">
          1678 33 callsubr
          -426 -1192 -37 callsubr
          -132 -96 -53 callsubr
          -65 -52 -55 16 22 -29 vhcurveto
          -33 callsubr
        </CharString>
        <CharString name="Ddotaccent">
          1678 800 91 callsubr
          808 -792 109 callsubr
          endchar
        </CharString>
        <CharString name="Ddotbelow">
          1678 33 callsubr
          -407 -854 -52 callsubr
        </CharString>
        <CharString name="Decyrillic">
          1536 1501 96 rmoveto
          -181 1120 -88 callgsubr
          -1283 -78 vlineto
          145 -18 40 -38 -4 -135 rrcurveto
          -5 -141 -13 -431 -45 -319 -142 -188 rlinecurve
          -143 hlineto
          -9 -452 rlineto
          77 hlineto
          283 64 88 73 273 hhcurveto
          492 hlineto
          284 80 -78 -278 64 hvcurveto
          77 hlineto
          -614 452 rmoveto
          -601 hlineto
          125 197 42 300 12 441 9 314 rcurveline
          413 hlineto
          endchar
        </CharString>
        <CharString name="Deltagreek">
          1402 35 hmoveto
          1332 217 hlineto
          -505 1229 -322 0 -505 -1229 rlineto
          140 48 rmoveto
          374 910 352 -910 rlineto
          endchar
        </CharString>
        <CharString name="Djecyrillic">
          1826 -38 callsubr
          225 callsubr
          444 vlineto
          24 41 61 16 66 hhcurveto
          168 101 -124 -258 hvcurveto
          1 -276 -92 -226 -203 -133 37 -65 rcurveline
          396 125 285 250 353 vvcurveto
          315 -217 176 -303 -152 -124 -36 -42 -65 vhcurveto
          594 90 callgsubr
        </CharString>
        <CharString name="Dlinebelow">
          1678 33 callsubr
          -733 -1092 -79 callsubr
        </CharString>
        <CharString name="Dzecyrillic">
          1325 615 -26 103 callsubr
          endchar
        </CharString>
        <CharString name="Dzhecyrillic">
          1728 1535 1231 rmoveto
          90 -75 callsubr
          -693 -46 callgsubr
          -494 -97 callgsubr
          571 vlineto
          125 26 -38 -288 50 hvcurveto
          77 hlineto
          288 50 26 38 124 hhcurveto
          572 78 hlineto
          94 callsubr
        </CharString>
        <CharString name="E">
          1348 1238 1444 -92 callsubr
        </CharString>
        <CharString name="Eacute">
          1348 671 -69 callsubr
          665 -90 -92 callsubr
        </CharString>
        <CharString name="Ebreve">
          1348 722 167 callsubr
          -1 -19 callsubr
          516 -117 -92 callsubr
        </CharString>
        <CharString name="Ecaron">
          1348 983 -39 callsubr
          -65 callgsubr
          160 -410 -92 callsubr
        </CharString>
        <CharString name="Ecedilla">
          1348 682 -471 rmoveto
          50 callsubr
          -86 callgsubr
          77 83 rlineto
          6 519 vlineto
          -78 callsubr
          -27 callsubr
          -31 -49 -113 -5 rrcurveto
          -24 callsubr
          -11 417 rlineto
          -21 callsubr
          4 callgsubr
        </CharString>
        <CharString name="Ecedillabreve">
          1348 722 167 callsubr
          -1 -19 callsubr
          -40 -2032 rmoveto
          50 callsubr
          -86 callgsubr
          77 83 rlineto
          6 519 vlineto
          -78 callsubr
          -27 callsubr
          -31 -49 -113 -5 rrcurveto
          -24 callsubr
          -11 417 rlineto
          -21 callsubr
          4 callgsubr
        </CharString>
        <CharString name="Ecircumflex">
          1348 496 -54 callsubr
          77 callsubr
          838 -90 -92 callsubr
        </CharString>
        <CharString name="Ecircumflexacute">
          1348 1059 1858 4 callsubr
          1 -273 rmoveto
          181 callsubr
          853 -119 -92 callsubr
        </CharString>
        <CharString name="Ecircumflexbelow">
          1348 1238 1444 rmoveto
          -21 callsubr
          1230 vlineto
          -78 callsubr
          -27 callsubr
          -31 -49 -113 -5 rrcurveto
          -24 callsubr
          -781 -1489 78 callsubr
          -218 356 -230 0 -219 -356 rlineto
          endchar
        </CharString>
        <CharString name="Ecircumflexdotbelow">
          1348 496 -54 callsubr
          77 callsubr
          838 -90 rmoveto
          -21 callsubr
          1230 vlineto
          -78 callsubr
          -27 callsubr
          -31 -49 -113 -5 rrcurveto
          -24 callsubr
          -538 -1160 -52 callsubr
        </CharString>
        <CharString name="Ecircumflexgrave">
          1348 384 1858 rmoveto
          676 -88 0 63 -676 194 rlineto
          1 -530 rmoveto
          181 callsubr
          853 -119 -92 callsubr
        </CharString>
        <CharString name="Ecircumflexhookabove">
          1348 1008 202 callsubr
          853 -119 -92 callsubr
        </CharString>
        <CharString name="Ecircumflextilde">
          1348 858 1803 rmoveto
          127 77 72 144 callsubr
          -31 callgsubr
          853 -119 -92 callsubr
        </CharString>
        <CharString name="Ecyrillic">
          1473 81 720 -6 callsubr
          -238 -141 275 332 -11 hvcurveto
          542 -13 0 125 -542 -13 rlineto
          349 13 143 231 232 hhcurveto
          -26 callgsubr
        </CharString>
        <CharString name="Edblgrave">
          1348 568 1840 rmoveto
          -346 -8 hlineto
          348 -40 callgsubr
          -41 callgsubr
          256 -90 -92 callsubr
        </CharString>
        <CharString name="Edieresis">
          1348 539 1548 rmoveto
          44 callsubr
          -81 -15 callsubr
          0 callsubr
          -15 callsubr
          333 -104 -92 callsubr
        </CharString>
        <CharString name="Edotaccent">
          1348 722 1537 rmoveto
          85 callsubr
          101 callsubr
          516 -93 -92 callsubr
        </CharString>
        <CharString name="Edotbelow">
          1348 1238 1444 rmoveto
          -21 callsubr
          1230 vlineto
          -78 callsubr
          -27 callsubr
          -31 -49 -113 -5 rrcurveto
          -24 callsubr
          -538 -1160 -52 callsubr
        </CharString>
        <CharString name="Efcyrillic">
          2098 59 719 rmoveto
          -285 246 -191 548 -12 vhcurveto
          -29 vlineto
          -99 -23 -33 -127 -19 vhcurveto
          -77 694 77 vlineto
          -128 19 -23 33 99 vvcurveto
          29 vlineto
          552 12 241 185 294 vvcurveto
          284 -235 195 -558 12 vhcurveto
          29 vlineto
          99 23 33 128 19 vhcurveto
          77 -694 -77 vlineto
          127 -19 23 -33 -99 vvcurveto
          -29 vlineto
          -564 -12 -230 -188 -294 vvcurveto
          1535 2 rmoveto
          -207 -108 -167 -240 -22 vhcurveto
          794 vlineto
          251 -21 97 -167 -210 vvcurveto
          -1090 2 rmoveto
          207 105 167 244 22 vhcurveto
          -795 vlineto
          -249 22 -100 167 210 vvcurveto
          endchar
        </CharString>
        <CharString name="Egrave">
          1348 808 1534 rmoveto
          96 hlineto
          -102 306 rlineto
          -410 -8 hlineto
          846 -388 -92 callsubr
        </CharString>
        <CharString name="Ehookabove">
          1348 764 67 callsubr
          87 callsubr
          123 callsubr
          474 -442 -92 callsubr
        </CharString>
        <CharString name="Einvertedbreve">
          1348 722 1901 rmoveto
          -215 -107 -139 -144 -20 1 -99 callgsubr
          133 132 98 -61 -88 vhcurveto
          -2 87 vlineto
          3 17 2 20 20 vvcurveto
          144 -108 139 -214 vhcurveto
          516 -457 -92 callsubr
        </CharString>
        <CharString name="Elcyrillic">
          1568 13 callgsubr
          406 -1135 hlineto
          -91 -22 -24 -117 -20 vhcurveto
          -78 702 78 vlineto
          -118 20 -21 24 91 vvcurveto
          1018 vlineto
          92 21 23 118 20 vhcurveto
          78 -1265 -27 callgsubr
          endchar
        </CharString>
        <CharString name="Emacron">
          1348 407 76 callsubr
          831 -310 -92 callsubr
        </CharString>
        <CharString name="Emacronacute">
          1348 1059 90 callsubr
          -205 vmoveto
          49 callsubr
          854 -276 -92 callsubr
        </CharString>
        <CharString name="Emacrongrave">
          1348 384 1878 rmoveto
          676 -88 0 63 -676 194 rlineto
          -462 vmoveto
          49 callsubr
          854 -276 -92 callsubr
        </CharString>
        <CharString name="Emcyrillic">
          1921 669 1444 54 callsubr
        </CharString>
        <CharString name="Encyrillic">
          18 callsubr
          -64 callsubr
          -57 callsubr
          -59 callsubr
          -74 callsubr
          -35 callsubr
          endchar
        </CharString>
        <CharString name="Eogonek">
          1348 1049 -4 callgsubr
          178 hlineto
          -78 callsubr
          -27 callsubr
          -32 -49 -112 -5 rrcurveto
          -24 callsubr
          -11 417 rlineto
          -21 callsubr
          953 vlineto
          80 callgsubr
          endchar
        </CharString>
        <CharString name="Epsilongreek">
          1348 1238 1444 -92 callsubr
        </CharString>
        <CharString name="Epsilontonosgreek">
          1737 1626 1444 rmoveto
          -1184 -78 hlineto
          118 -21 22 -24 -90 vvcurveto
          -1018 8 callsubr
          1230 vlineto
          -78 callsubr
          -65 -280 -78 -66 -267 -12 rrcurveto
          -194 -9 0 604 164 50 callgsubr
          -31 -49 -113 -5 rrcurveto
          -164 -3 0 573 167 -7 259 -13 74 -66 57 -242 rlinecurve
          75 hlineto
          -1524 22 -12 callsubr
          92 callsubr
        </CharString>
        <CharString name="Ercyrillic">
          1507 1437 1017 55 callsubr
        </CharString>
        <CharString name="Ereversedcyrillic">
          1477 110 74 rmoveto
          -59 89 188 -41 180 hhcurveto
          487 342 297 461 453 -337 285 -490 -204 -166 -40 -57 -85 hvcurveto
          -11 -354 rlineto
          74 hlineto
          227 52 125 119 182 hhcurveto
          229 150 -225 -354 14 hvcurveto
          -543 12 0 -125 543 12 rlineto
          -345 -11 -144 -261 -240 hhcurveto
          -170 -135 101 248 -57 hvcurveto
          -73 hlineto
          endchar
        </CharString>
        <CharString name="Escyrillic">
          1458 81 720 -6 callsubr
          -26 callsubr
        </CharString>
        <CharString name="Etagreek">
          18 callsubr
          -64 callsubr
          -57 callsubr
          -59 callsubr
          -74 callsubr
          -35 callsubr
          endchar
        </CharString>
        <CharString name="Etatonosgreek">
          2128 1006 206 40 callsubr
          -21 62 callgsubr
          1018 vlineto
          92 22 23 118 20 vhcurveto
          78 -693 -78 vlineto
          109 -18 21 -23 -87 vvcurveto
          -57 callsubr
          108 20 vhcurveto
          78 -693 -78 vlineto
          118 -21 22 -24 -90 vvcurveto
          -1018 8 callsubr
          693 78 vlineto
          -109 19 -20 24 85 vvcurveto
          -892 843 -12 callsubr
          92 callsubr
        </CharString>
        <CharString name="Etilde">
          1348 853 -104 callgsubr
          -9 hvcurveto
          235 callsubr
          9 callsubr
          1 26 -101 callgsubr
          385 -97 -92 callsubr
        </CharString>
        <CharString name="Etildebelow">
          1348 1238 1444 rmoveto
          -21 callsubr
          1230 vlineto
          -78 callsubr
          -27 callsubr
          -31 -49 -113 -5 rrcurveto
          -24 callsubr
          -408 -1460 rmoveto
          118 85 87 219 -11 -24 callgsubr
        </CharString>
        <CharString name="F">
          1264 1213 1444 rmoveto
          -1159 -65 callsubr
          -107 callsubr
          714 -48 callsubr
          214 callsubr
        </CharString>
        <CharString name="Fdotaccent">
          1264 704 35 callsubr
          509 -93 rmoveto
          -1159 -65 callsubr
          -107 callsubr
          714 -48 callsubr
          214 callsubr
        </CharString>
        <CharString name="G">
          1603 81 716 -10 callsubr
        </CharString>
        <CharString name="Gacute">
          1603 842 -69 callsubr
          -663 -818 -10 callsubr
        </CharString>
        <CharString name="Gammagreek">
          1253 1201 1444 rmoveto
          -1147 -65 callsubr
          -107 callsubr
          148 callsubr
          1125 vlineto
          151 -5 243 -9 72 -53 55 -233 rlinecurve
          74 hlineto
          endchar
        </CharString>
        <CharString name="Gbreve">
          1603 893 167 callsubr
          -2 -20 -21 vvcurveto
          -144 109 -138 214 vhcurveto
          -812 -845 -10 callsubr
        </CharString>
        <CharString name="Gcaron">
          1603 1154 -39 callsubr
          -98 0 -51 callgsubr
          -1168 -1138 -10 callsubr
        </CharString>
        <CharString name="Gcircumflex">
          1603 667 1534 rmoveto
          243 137 45 callgsubr
          -490 -818 -10 callsubr
        </CharString>
        <CharString name="Gcommaaccent">
          1603 81 716 rmoveto
          -444 332 -298 480 220 216 49 84 124 vhcurveto
          407 vlineto
          85 19 25 109 15 vhcurveto
          77 -637 -77 vlineto
          118 -14 20 -25 -85 vvcurveto
          -392 vlineto
          -26 -30 -58 -18 -70 hhcurveto
          -241 -135 297 355 379 141 255 250 192 131 -164 -236 54 hvcurveto
          74 hlineto
          -8 414 rlineto
          57 -88 -173 34 -208 hhcurveto
          -469 -363 -267 -487 hvcurveto
          780 -1187 161 callsubr
        </CharString>
        <CharString name="Gdotaccent">
          1603 893 125 callsubr
          -812 -821 -10 callsubr
        </CharString>
        <CharString name="Geacutecyrillic">
          1253 594 -63 callsubr
          704 -90 rmoveto
          -1147 -65 callsubr
          -107 callsubr
          148 callsubr
          41 callgsubr
        </CharString>
        <CharString name="Gecyrillic">
          1253 1201 1444 rmoveto
          -1147 -65 callsubr
          -107 callsubr
          148 callsubr
          41 callgsubr
        </CharString>
        <CharString name="Germandbls">
          1639 617 hmoveto
          1355 vlineto
          157 -7 rlineto
          243 -11 102 -109 -141 vvcurveto
          -126 -77 -77 -132 -16 vhcurveto
          -269 vlineto
          208 -50 105 -124 -156 vvcurveto
          -119 -62 -70 -100 -125 -95 140 204 -34 vhcurveto
          -74 -370 hlineto
          -42 63 127 -37 154 hhcurveto
          247 245 137 283 236 -143 188 -225 64 hvcurveto
          191 16 122 94 142 vvcurveto
          183 -188 126 -433 vhcurveto
          -840 -78 hlineto
          118 -18 22 -24 -88 vvcurveto
          -1028 vlineto
          -88 -22 -24 -118 -18 vhcurveto
          -78 vlineto
          endchar
        </CharString>
        <CharString name="Geupturncyrillic">
          1225 1174 1348 rmoveto
          10 431 rlineto
          -77 hlineto
          -278 -81 -59 -57 -249 hhcurveto
          -664 -65 callsubr
          -107 callsubr
          148 callsubr
          1119 vlineto
          endchar
        </CharString>
        <CharString name="Gmacron">
          1603 578 76 callsubr
          -497 -1038 -10 callsubr
        </CharString>
        <CharString name="H">
          18 callsubr
          -64 callsubr
          -57 callsubr
          -59 callsubr
          -74 callsubr
          -35 callsubr
          endchar
        </CharString>
        <CharString name="Hacyrillic">
          1482 282 313 52 callsubr
        </CharString>
        <CharString name="Hardsigncyrillic">
          1729 1670 -53 callgsubr
          -184 335 -88 callgsubr
          -959 vlineto
          -11 -390 rlineto
          74 hlineto
          48 232 70 52 196 13 8 1 rcurveline
          -1130 vlineto
          -96 -23 -29 -124 -19 vhcurveto
          -78 761 66 callgsubr
          -135 -197 -9 vhcurveto
          -78 -2 0 694 72 -1 rlineto
          182 -4 111 -126 -212 vvcurveto
          endchar
        </CharString>
        <CharString name="Hbar">
          18 callsubr
          809 140 90 -140 119 29 callgsubr
          -126 -505 126 -89 callgsubr
          -119 -139 -90 139 -809 vlineto
          -90 -22 -24 -117 -21 vhcurveto
          -78 -35 callsubr
          579 vmoveto
          237 505 -237 vlineto
          endchar
        </CharString>
        <CharString name="Hbrevebelow">
          18 callsubr
          -64 callsubr
          -57 callsubr
          -59 callsubr
          -74 callsubr
          -35 callsubr
          253 -666 rmoveto
          219 47 callgsubr
          -138 -138 37 callgsubr
          220 vhcurveto
          endchar
        </CharString>
        <CharString name="Hcaron">
          1739 1130 1853 rmoveto
          -243 -136 -244 136 -97 0 74 callsubr
          -609 -1647 40 callsubr
          -20 62 callgsubr
          -64 callsubr
          -57 callsubr
          -59 callsubr
          -74 callsubr
          -35 callsubr
          endchar
        </CharString>
        <CharString name="Hcedilla">
          1739 367 -471 rmoveto
          147 128 67 126 123 -113 67 -132 hvcurveto
          -9 -10 -1 -9 hhcurveto
          80 89 rlineto
          298 78 hlineto
          -109 19 -21 24 85 vvcurveto
          483 505 -483 vlineto
          -87 -20 62 callgsubr
          -64 callsubr
          -57 callsubr
          -59 callsubr
          -74 callsubr
          299 vlineto
          -134 -158 80 callsubr
          39 -25 -43 -45 -41 -24 -60 -49 -48 15 19 -28 hvcurveto
          -75 vlineto
          -50 43 86 -33 101 hhcurveto
          endchar
        </CharString>
        <CharString name="Hcircumflex">
          1739 643 -54 callsubr
          136 243 -136 98 0 -215 305 -251 0 -214 -305 rlineto
          69 -1328 40 callsubr
          -20 62 callgsubr
          -64 callsubr
          -57 callsubr
          -59 callsubr
          -74 callsubr
          -35 callsubr
          endchar
        </CharString>
        <CharString name="Hdieresis">
          1739 687 1547 rmoveto
          81 65 59 81 82 -65 58 -81 -81 -65 -58 -82 -81 65 -59 81 hvcurveto
          366 hmoveto
          81 65 59 81 82 -65 58 -81 -81 -66 -58 -82 -81 66 -59 81 hvcurveto
          -436 -1341 40 callsubr
          -20 62 callgsubr
          -64 callsubr
          -57 callsubr
          -59 callsubr
          -74 callsubr
          -35 callsubr
          endchar
        </CharString>
        <CharString name="Hdotaccent">
          1739 870 1536 rmoveto
          88 72 64 87 87 -72 63 -88 -89 -72 -63 -87 -87 72 -64 89 hvcurveto
          -253 -1330 40 callsubr
          -20 62 callgsubr
          -64 callsubr
          -57 callsubr
          -59 callsubr
          -74 callsubr
          -35 callsubr
          endchar
        </CharString>
        <CharString name="Hdotbelow">
          18 callsubr
          -64 callsubr
          -57 callsubr
          -59 callsubr
          -74 callsubr
          -35 callsubr
          253 -339 -52 callsubr
        </CharString>
        <CharString name="I">
          811 617 -55 callsubr
          -75 callsubr
          -98 callsubr
          -107 callsubr
          -83 callsubr
        </CharString>
        <CharString name="IAcyrillic">
          1528 119 1018 rmoveto
          -182 122 -110 167 -45 vhcurveto
          -202 -365 -100 -178 -32 -40 -61 -24 rlinecurve
          -74 446 vlineto
          334 629 rlineto
          114 -423 hlineto
          -85 -20 -23 -109 -20 vhcurveto
          -78 693 78 vlineto
          -118 22 -22 24 89 vvcurveto
          1017 vlineto
          91 -75 callsubr
          -748 vlineto
          -417 -187 -175 -251 hvcurveto
          426 18 rmoveto
          192 103 115 186 9 vhcurveto
          73 3 0 -635 -78 1 rlineto
          -163 5 -121 116 194 vvcurveto
          endchar
        </CharString>
        <CharString name="IJ">
          1622 617 -55 callsubr
          -75 callsubr
          -98 callsubr
          -107 callsubr
          31 callsubr
          218 callsubr
        </CharString>
        <CharString name="IJacute">
          1622 354 -63 callsubr
          908 hmoveto
          96 callgsubr
          -451 -1321 -81 callsubr
          -98 callsubr
          -107 callsubr
          31 callsubr
          218 callsubr
        </CharString>
        <CharString name="IUcyrillic">
          2425 617 206 rmoveto
          483 167 vlineto
          -432 14 325 -283 441 hhcurveto
          470 311 325 427 449 -330 295 -451 -446 -302 -291 -394 -30 hvcurveto
          -169 453 hlineto
          24 callgsubr
          -35 callsubr
          954 -127 rmoveto
          -201 -120 264 391 382 90 249 217 201 121 -263 -391 hvcurveto
          -382 -1 -91 -250 -216 hhcurveto
          endchar
        </CharString>
        <CharString name="Iacute">
          811 354 -63 callsubr
          360 -1321 -81 callsubr
          -98 callsubr
          -107 callsubr
          -83 callsubr
        </CharString>
        <CharString name="Ibreve">
          811 405 132 callsubr
          -132 -98 99 callsubr
          -2 -19 callsubr
          212 -1348 -81 callsubr
          -98 callsubr
          -107 callsubr
          -83 callsubr
        </CharString>
        <CharString name="Icaron">
          811 666 -39 callsubr
          26 callsubr
          -145 -1641 -81 callsubr
          -98 callsubr
          -107 callsubr
          -83 callsubr
        </CharString>
        <CharString name="Icircumflex">
          811 179 -54 callsubr
          122 callsubr
          533 -1321 -81 callsubr
          -98 callsubr
          -107 callsubr
          -83 callsubr
        </CharString>
        <CharString name="Icyrillic">
          811 617 -55 callsubr
          -75 callsubr
          -98 callsubr
          -107 callsubr
          -83 callsubr
        </CharString>
        <CharString name="Idblgrave">
          811 251 1840 rmoveto
          -346 -92 callgsubr
          -42 callgsubr
          -48 -1321 -81 callsubr
          -98 callsubr
          -107 callsubr
          -83 callsubr
        </CharString>
        <CharString name="Idieresis">
          811 223 22 callsubr
          7 callsubr
          29 -1335 -81 callsubr
          -98 callsubr
          -107 callsubr
          -83 callsubr
        </CharString>
        <CharString name="Idieresisacute">
          811 743 25 callsubr
          167 -240 rmoveto
          67 54 42 61 callgsubr
          176 callsubr
          42 -1337 -81 callsubr
          -98 callsubr
          -107 callsubr
          -83 callsubr
        </CharString>
        <CharString name="Idotaccent">
          811 405 35 callsubr
          212 -1324 -81 callsubr
          -98 callsubr
          -107 callsubr
          -83 callsubr
        </CharString>
        <CharString name="Idotbelow">
          811 617 -55 callsubr
          -75 callsubr
          -98 callsubr
          -107 callsubr
          31 callsubr
          -206 -346 -71 callsubr
        </CharString>
        <CharString name="Iecyrillic">
          1348 1238 1444 -92 callsubr
        </CharString>
        <CharString name="Igrave">
          811 491 -3 callsubr
          542 -1619 -81 callsubr
          -98 callsubr
          -107 callsubr
          -83 callsubr
        </CharString>
        <CharString name="Ihookabove">
          811 447 221 callsubr
          170 -1673 -81 callsubr
          -98 callsubr
          -107 callsubr
          -83 callsubr
        </CharString>
        <CharString name="Iicyrillic">
          1764 617 206 rmoveto
          63 vlineto
          529 760 rlineto
          -823 vlineto
          -87 -20 62 callgsubr
          -64 callsubr
          -62 vlineto
          -529 -761 rlineto
          823 -89 callgsubr
          -107 callsubr
          -35 callsubr
          endchar
        </CharString>
        <CharString name="Iinvertedbreve">
          811 405 162 callsubr
          212 -1688 -81 callsubr
          -98 callsubr
          -107 callsubr
          -83 callsubr
        </CharString>
        <CharString name="Iishortcyrillic">
          1764 882 1555 rmoveto
          210 144 104 141 81 -55 58 -81 -79 -57 -59 -73 -57 36 -48 50 -17 hvcurveto
          -25 -45 -58 -16 -65 hhcurveto
          -65 -58 16 25 -45 hvcurveto
          49 17 36 48 57 vvcurveto
          73 -57 59 -78 -81 -56 -58 -81 -141 145 -104 210 vhcurveto
          -265 -1349 rmoveto
          63 vlineto
          529 760 rlineto
          -823 vlineto
          -87 -20 62 callgsubr
          -64 callsubr
          -62 vlineto
          -529 -761 rlineto
          823 -89 callgsubr
          -107 callsubr
          -35 callsubr
          endchar
        </CharString>
        <CharString name="Imacron">
          811 91 2 callsubr
          526 -1541 -81 callsubr
          -98 callsubr
          -107 callsubr
          -83 callsubr
        </CharString>
        <CharString name="Iocyrillic">
          1348 539 1548 rmoveto
          44 callsubr
          -81 -15 callsubr
          0 callsubr
          -15 callsubr
          333 -104 -92 callsubr
        </CharString>
        <CharString name="Iogonek">
          811 413 -483 rmoveto
          115 97 56 84 34 hvcurveto
          75 vlineto
          -15 -14 -26 -11 -33 hhcurveto
          -71 -66 82 113 39 8 36 13 24 hvcurveto
          287 78 hlineto
          -118 21 -22 24 90 vvcurveto
          1018 14 callsubr
          -98 callsubr
          -107 callsubr
          317 vlineto
          80 callgsubr
          endchar
        </CharString>
        <CharString name="Iotadieresisgreek">
          811 223 22 callsubr
          7 callsubr
          29 -1335 -81 callsubr
          -98 callsubr
          -107 callsubr
          -83 callsubr
        </CharString>
        <CharString name="Iotagreek">
          811 617 -55 callsubr
          -75 callsubr
          -98 callsubr
          -107 callsubr
          -83 callsubr
        </CharString>
        <CharString name="Iotatonosgreek">
          1199 1006 -55 callsubr
          21 24 118 21 vhcurveto
          78 -703 -78 vlineto
          118 -21 22 -24 -90 vvcurveto
          -1018 8 callsubr
          703 78 vlineto
          -118 21 -21 24 90 vvcurveto
          -892 836 -12 callsubr
          92 callsubr
        </CharString>
        <CharString name="Itilde">
          811 536 -98 callgsubr
          -26 -33 -45 131 callsubr
          -119 -86 9 callsubr
          -39 callgsubr
          81 -1328 -81 callsubr
          -98 callsubr
          -107 callsubr
          -83 callsubr
        </CharString>
        <CharString name="Itildebelow">
          811 617 -55 callsubr
          -75 callsubr
          -98 callsubr
          -107 callsubr
          31 callsubr
          -76 -646 rmoveto
          118 85 87 219 -11 hvcurveto
          -83 hlineto
          -88 -1 -26 -33 -48 hhcurveto
          -30 -26 12 26 -39 -45 callgsubr
          27 callgsubr
          31 -20 rlineto
          -37 57 50 -19 62 hhcurveto
          endchar
        </CharString>
        <CharString name="J">
          811 617 289 rmoveto
          942 14 callsubr
          -98 callsubr
          146 callsubr
        </CharString>
        <CharString name="Jacute">
          811 355 -69 callsubr
          360 -1245 rmoveto
          942 14 callsubr
          -98 callsubr
          146 callsubr
        </CharString>
        <CharString name="Jcircumflex">
          811 180 93 callgsubr
          -55 callgsubr
          533 -1245 rmoveto
          942 14 callsubr
          -98 callsubr
          146 callsubr
        </CharString>
        <CharString name="Jecyrillic">
          811 617 289 rmoveto
          942 14 callsubr
          -98 callsubr
          146 callsubr
        </CharString>
        <CharString name="K">
          1548 617 206 16 callsubr
        </CharString>
        <CharString name="Kaacutecyrillic">
          1548 802 -69 callsubr
          -87 -1328 16 callsubr
        </CharString>
        <CharString name="Kacute">
          1548 802 -69 callsubr
          -87 -1328 16 callsubr
        </CharString>
        <CharString name="Kacyrillic">
          1548 617 206 16 callsubr
        </CharString>
        <CharString name="Kappagreek">
          1548 617 206 16 callsubr
        </CharString>
        <CharString name="Kcaron">
          1548 1114 -39 callsubr
          -65 callgsubr
          -592 -1648 16 callsubr
        </CharString>
        <CharString name="Kcommaaccent">
          153 callsubr
          202 -677 161 callsubr
        </CharString>
        <CharString name="Kdotbelow">
          153 callsubr
          221 -339 124 callsubr
        </CharString>
        <CharString name="Klinebelow">
          153 callsubr
          -104 -577 -79 callsubr
        </CharString>
        <CharString name="L">
          23 callsubr
          endchar
        </CharString>
        <CharString name="Lacute">
          1258 354 -63 callsubr
          951 -1534 rmoveto
          -2 callsubr
          17 callsubr
          endchar
        </CharString>
        <CharString name="Lambdagreek">
          1520 1327 280 rmoveto
          -406 1165 -322 0 -400 -1149 -58 -168 -36 -33 -104 -17 rlinecurve
          -78 435 78 vlineto
          -140 20 -21 41 50 157 rrcurveto
          276 851 276 -860 48 -151 -27 -38 -133 -20 rlinecurve
          -78 754 78 vlineto
          -96 17 -42 29 -54 156 rrcurveto
          endchar
        </CharString>
        <CharString name="Lcaron">
          1258 1007 1152 -44 callgsubr
          281 -1152 rmoveto
          -2 callsubr
          17 callsubr
          endchar
        </CharString>
        <CharString name="Lcircumflexbelow">
          23 callsubr
          382 -462 rmoveto
          242 -25 callsubr
        </CharString>
        <CharString name="Lcommaaccent">
          23 callsubr
          606 -471 -37 callsubr
          180 callsubr
          42 -21 -41 vvcurveto
          -41 -39 -23 232 callsubr
        </CharString>
        <CharString name="Ldot">
          23 callsubr
          925 673 rmoveto
          104 84 74 103 103 -84 74 -104 -104 -84 -74 -103 -103 84 -74 104 hvcurveto
          endchar
        </CharString>
        <CharString name="Ldotbelow">
          23 callsubr
          624 -133 124 callsubr
        </CharString>
        <CharString name="Ldotbelowmacron">
          1258 91 2 callsubr
          1117 -1754 rmoveto
          -2 callsubr
          17 callsubr
          624 -133 124 callsubr
        </CharString>
        <CharString name="Ljecyrillic">
          2209 13 callgsubr
          370 -1135 hlineto
          -91 -22 -24 -118 -20 vhcurveto
          -78 755 vlineto
          394 226 176 270 278 -245 157 -381 hvcurveto
          -185 335 -88 callgsubr
          -1240 -27 callgsubr
          1701 288 rmoveto
          -205 -88 -135 -198 -9 vhcurveto
          -79 -2 0 694 73 -1 rlineto
          181 -4 111 -126 -212 vvcurveto
          endchar
        </CharString>
        <CharString name="Llinebelow">
          23 callsubr
          299 -371 -79 callsubr
        </CharString>
        <CharString name="Lslash">
          1258 54 624 rmoveto
          139 35 rlineto
          -446 vlineto
          -90 -22 -24 -117 -21 vhcurveto
          -78 1154 vlineto
          -2 callsubr
          rrcurveto
          -135 -6 0 675 313 77 0 97 -313 -78 rlineto
          364 vlineto
          94 23 28 128 20 -90 callgsubr
          -475 vlineto
          -139 -35 rlineto
          endchar
        </CharString>
        <CharString name="M">
          1921 669 1444 54 callsubr
        </CharString>
        <CharString name="Macute">
          1921 903 -63 callsubr
          -137 -90 54 callsubr
        </CharString>
        <CharString name="Mdotaccent">
          1921 955 91 callsubr
          -286 -93 54 callsubr
        </CharString>
        <CharString name="Mdotbelow">
          1921 669 1444 rmoveto
          -610 -78 hlineto
          112 -17 26 -38 -3 -100 rrcurveto
          -30 -948 -5 -135 -19 -32 -115 -18 rlinecurve
          -78 411 78 vlineto
          -119 21 -19 29 135 vvcurveto
          -1 966 398 -1229 234 0 108 401 266 827 25 -1019 2 -89 -24 -24 -114 -18 rlinecurve
          -78 699 78 vlineto
          -122 19 -20 24 -3 92 rrcurveto
          -27 1018 -2 91 24 26 119 18 rlinecurve
          78 vlineto
          -613 2 -276 -961 rlineto
          -162 -618 -71 callsubr
        </CharString>
        <CharString name="Mugreek">
          1921 669 1444 54 callsubr
        </CharString>
        <CharString name="N">
          1529 -18 callsubr
          -8 callsubr
          endchar
        </CharString>
        <CharString name="Nacute">
          1529 752 -63 callsubr
          -28 -90 -7 callsubr
          -8 callsubr
          endchar
        </CharString>
        <CharString name="Ncaron">
          1529 1064 -39 callsubr
          26 callsubr
          -533 -410 -7 callsubr
          -8 callsubr
          endchar
        </CharString>
        <CharString name="Ncircumflexbelow">
          1529 -18 callsubr
          -8 callsubr
          -774 -836 rmoveto
          243 -25 callsubr
        </CharString>
        <CharString name="Ncommaaccent">
          1529 -18 callsubr
          -8 callsubr
          -550 -845 -37 callsubr
          -131 -97 -53 callsubr
          -31 callsubr
          -33 callsubr
        </CharString>
        <CharString name="Ndotaccent">
          1529 803 35 callsubr
          -176 -93 -7 callsubr
          -8 callsubr
          endchar
        </CharString>
        <CharString name="Ndotbelow">
          1529 -18 callsubr
          -8 callsubr
          -531 -507 -71 callsubr
        </CharString>
        <CharString name="Ngrave">
          1529 889 -3 callsubr
          154 -388 -7 callsubr
          -8 callsubr
          endchar
        </CharString>
        <CharString name="Njecyrillic">
          2368 617 206 rmoveto
          526 457 -526 vlineto
          -85 -20 -24 -109 -19 vhcurveto
          -78 745 vlineto
          396 222 164 255 263 -246 147 -378 hvcurveto
          -186 387 -88 callgsubr
          -703 -78 vlineto
          109 -19 20 -24 -85 vvcurveto
          -409 -457 409 -89 callgsubr
          -107 callsubr
          -35 callsubr
          1249 212 rmoveto
          -191 -89 -124 -198 -9 vhcurveto
          -81 -2 0 642 75 -1 rlineto
          181 -4 112 -116 -195 vvcurveto
          endchar
        </CharString>
        <CharString name="Nlinebelow">
          1529 -18 callsubr
          -8 callsubr
          -856 -745 -79 callsubr
        </CharString>
        <CharString name="Ntilde">
          1529 934 -98 callgsubr
          -26 -33 -45 131 callsubr
          -119 -86 9 callsubr
          2 25 34 47 hhcurveto
          30 -67 callgsubr
          -307 -97 -7 callsubr
          -8 callsubr
          endchar
        </CharString>
        <CharString name="Nugreek">
          1529 -18 callsubr
          -8 callsubr
          endchar
        </CharString>
        <CharString name="O">
          11 callsubr
          68 callsubr
          -105 callsubr
          -104 callsubr
          -102 callsubr
        </CharString>
        <CharString name="OE">
          2154 81 720 rmoveto
          -448 360 -297 434 vhcurveto
          139 124 25 140 hhcurveto
          813 hlineto
          11 456 rlineto
          -74 hlineto
          -66 -281 -70 -66 -253 -12 rrcurveto
          -180 -8 0 604 157 -3 110 -5 32 -48 29 -159 rlinecurve
          70 518 -70 hlineto
          -30 -157 -31 -49 -110 -5 rrcurveto
          -157 -3 0 573 156 -7 251 -13 68 -66 60 -241 rlinecurve
          73 hlineto
          -11 416 rlineto
          -771 hlineto
          -142 -104 25 -146 hhcurveto
          -499 -313 -321 -428 hvcurveto
          448 hmoveto
          380 138 264 261 40 37 -6 -12 31 vhcurveto
          -1249 vlineto
          -11 -35 -40 -5 -43 hhcurveto
          -236 -153 259 380 hvcurveto
          endchar
        </CharString>
        <CharString name="Oacute">
          1739 816 -63 callsubr
          -638 -815 -103 callsubr
          -105 callsubr
          -104 callsubr
          -102 callsubr
        </CharString>
        <CharString name="Obreve">
          1739 867 132 callsubr
          -131 -99 99 callsubr
          -2 -19 callsubr
          -786 -842 -103 callsubr
          -105 callsubr
          -104 callsubr
          -102 callsubr
        </CharString>
        <CharString name="Ocaron">
          1739 1128 1854 rmoveto
          -243 -137 -244 137 26 callsubr
          -1143 -1135 -103 callsubr
          -105 callsubr
          -104 callsubr
          -102 callsubr
        </CharString>
        <CharString name="Ocircumflex">
          1739 641 -54 callsubr
          137 243 -137 98 0 -55 callgsubr
          -465 -815 -103 callsubr
          -105 callsubr
          -104 callsubr
          -102 callsubr
        </CharString>
        <CharString name="Ocircumflexacute">
          1739 1205 1858 4 callsubr
          -273 vmoveto
          338 82 337 -22 callsubr
          -449 -844 -103 callsubr
          -105 callsubr
          -104 callsubr
          -102 callsubr
        </CharString>
        <CharString name="Ocircumflexdotbelow">
          1739 641 -54 callsubr
          137 243 -137 98 0 -55 callgsubr
          -465 -815 -103 callsubr
          -105 callsubr
          -104 callsubr
          117 callsubr
          326 -867 -52 callsubr
        </CharString>
        <CharString name="Ocircumflexgrave">
          1739 530 1858 -106 callgsubr
          -530 vmoveto
          338 82 337 -22 callsubr
          -449 -844 -103 callsubr
          -105 callsubr
          -104 callsubr
          -102 callsubr
        </CharString>
        <CharString name="Ocircumflexhookabove">
          1739 1153 0 callgsubr
          -36 -28 -83 8 callgsubr
          338 82 337 -22 callsubr
          -449 -844 -103 callsubr
          -105 callsubr
          -104 callsubr
          -102 callsubr
        </CharString>
        <CharString name="Ocircumflextilde">
          1739 1003 1 callgsubr
          -52 -51 11 -56 hhcurveto
          -127 -76 -72 -131 2 hvcurveto
          91 hlineto
          47 27 21 53 30 32 -7 -12 40 vhcurveto
          105 callgsubr
          338 82 337 -22 callsubr
          -449 -844 -103 callsubr
          -105 callsubr
          -104 callsubr
          -102 callsubr
        </CharString>
        <CharString name="Ocyrillic">
          11 callsubr
          68 callsubr
          -105 callsubr
          -104 callsubr
          -102 callsubr
        </CharString>
        <CharString name="Odblgrave">
          1739 714 1840 rmoveto
          -347 -92 callgsubr
          -42 callgsubr
          -1046 -815 -103 callsubr
          -105 callsubr
          -104 callsubr
          -102 callsubr
        </CharString>
        <CharString name="Odieresis">
          1739 685 22 callsubr
          7 callsubr
          -969 -829 -103 callsubr
          -105 callsubr
          -104 callsubr
          -102 callsubr
        </CharString>
        <CharString name="Odieresismacron">
          1739 529 1851 rmoveto
          677 135 -677 hlineto
          168 -436 rmoveto
          67 54 42 61 callgsubr
          176 callsubr
          -956 -831 -103 callsubr
          -105 callsubr
          -104 callsubr
          -102 callsubr
        </CharString>
        <CharString name="Odotaccent">
          1739 867 35 callsubr
          -786 -818 -103 callsubr
          -105 callsubr
          -104 callsubr
          -102 callsubr
        </CharString>
        <CharString name="Odotaccentmacron">
          1739 529 1823 rmoveto
          677 136 -677 91 callgsubr
          -57 -47 -66 -65 57 -47 72 hvcurveto
          -786 -821 -103 callsubr
          -105 callsubr
          -104 callsubr
          -102 callsubr
        </CharString>
        <CharString name="Odotbelow">
          11 callsubr
          68 callsubr
          -105 callsubr
          -104 callsubr
          117 callsubr
          326 -867 -52 callsubr
        </CharString>
        <CharString name="Ograve">
          1739 953 -3 callsubr
          -456 -1113 -103 callsubr
          -105 callsubr
          -104 callsubr
          -102 callsubr
        </CharString>
        <CharString name="Ohookabove">
          1739 909 1886 rmoveto
          -117 -85 -55 -62 -39 hvcurveto
          -56 vlineto
          20 25 87 callsubr
          -34 -42 -87 -49 hvcurveto
          80 hlineto
          185 57 73 62 80 vvcurveto
          87 -82 59 -119 vhcurveto
          -828 -1167 -103 callsubr
          -105 callsubr
          -104 callsubr
          -102 callsubr
        </CharString>
        <CharString name="Ohorn">
          1772 81 719 -103 callsubr
          56 callsubr
        </CharString>
        <CharString name="Ohornacute">
          1772 820 -69 callsubr
          -641 -815 -103 callsubr
          56 callsubr
        </CharString>
        <CharString name="Ohorndotbelow">
          1772 81 719 -103 callsubr
          298 -157 237 -230 115 vhcurveto
          -10 47 50 -5 50 hhcurveto
          168 114 66 127 1 hvcurveto
          1 110 -90 107 -138 50 rrcurveto
          -77 hlineto
          24 -27 17 -59 -56 vvcurveto
          -129 -1 -85 -103 -157 -102 -101 23 -125 -69 callgsubr
          117 callsubr
          324 -867 -71 callsubr
        </CharString>
        <CharString name="Ohorngrave">
          1772 957 -3 callsubr
          -460 -1113 -103 callsubr
          56 callsubr
        </CharString>
        <CharString name="Ohornhookabove">
          1772 913 67 callsubr
          87 callsubr
          123 callsubr
          -832 -1167 -103 callsubr
          56 callsubr
        </CharString>
        <CharString name="Ohorntilde">
          1772 1002 -104 callgsubr
          -9 hvcurveto
          235 callsubr
          9 callsubr
          2 25 -101 callgsubr
          -921 -822 -103 callsubr
          56 callsubr
        </CharString>
        <CharString name="Ohungarumlaut">
          1739 662 1840 rmoveto
          -7 -306 100 0 220 298 rlineto
          8 vlineto
          93 hmoveto
          -114 -306 112 0 348 298 rlineto
          8 vlineto
          -1333 -1121 -103 callsubr
          -105 callsubr
          -104 callsubr
          -102 callsubr
        </CharString>
        <CharString name="Oinvertedbreve">
          1739 867 162 callsubr
          -786 -1182 -103 callsubr
          -105 callsubr
          -104 callsubr
          -102 callsubr
        </CharString>
        <CharString name="Omacron">
          1739 553 2 callsubr
          -472 -1035 -103 callsubr
          -105 callsubr
          -104 callsubr
          -102 callsubr
        </CharString>
        <CharString name="Omacronacute">
          1739 1205 90 callsubr
          -1 -205 rmoveto
          677 135 -677 hlineto
          -448 -1001 -103 callsubr
          -105 callsubr
          -104 callsubr
          -102 callsubr
        </CharString>
        <CharString name="Omacrongrave">
          1739 530 -87 callgsubr
          -1 -462 rmoveto
          677 135 -677 hlineto
          -448 -1001 -103 callsubr
          -105 callsubr
          -104 callsubr
          -102 callsubr
        </CharString>
        <CharString name="Omegagreek">
          1640 83 21 callgsubr
          205 212 128 -180 -323 -267 -88 -154 -167 -70 vhcurveto
          -372 654 vlineto
          54 451 rlineto
          -62 hlineto
          -68 -163 -191 -56 -294 15 callgsubr
          -490 -274 -266 -335 -307 250 -221 341 228 callsubr
          -63 hlineto
          endchar
        </CharString>
        <CharString name="Omegatonosgreek">
          1851 294 21 callgsubr
          206 211 128 -180 -323 -267 -88 -154 -166 -70 vhcurveto
          -372 653 vlineto
          55 451 rlineto
          -63 hlineto
          -68 -163 -190 -56 -295 15 callgsubr
          -489 -275 -266 -335 1 vhcurveto
          -307 250 -221 340 228 callsubr
          -62 hlineto
          -126 598 -12 callsubr
          92 callsubr
        </CharString>
        <CharString name="Omicrongreek">
          11 callsubr
          68 callsubr
          -105 callsubr
          -104 callsubr
          -102 callsubr
        </CharString>
        <CharString name="Omicrontonosgreek">
          1879 221 719 -103 callsubr
          -105 callsubr
          -107 330 -12 callsubr
          -334 vlineto
          -36 -395 rlineto
          681 -315 rmoveto
          380 93 251 223 204 124 -264 -390 -381 -94 -251 -222 -205 -123 265 390 vhcurveto
          endchar
        </CharString>
        <CharString name="Oogonek">
          11 callsubr
          -430 307 -292 430 -22 vhcurveto
          -100 -59 -72 -95 -102 vvcurveto
          -121 99 -81 131 116 95 56 84 36 vhcurveto
          -38 callgsubr
          76 108 32 7 31 10 22 hvcurveto
          442 25 288 318 408 vvcurveto
          -105 callsubr
          -104 callsubr
          -102 callsubr
        </CharString>
        <CharString name="Oogonekmacron">
          1739 553 2 callsubr
          -472 -1035 rmoveto
          -430 307 -292 430 -22 vhcurveto
          -100 -59 -72 -95 -102 vvcurveto
          -121 99 -81 131 116 95 56 84 36 vhcurveto
          -38 callgsubr
          76 108 32 7 31 10 22 hvcurveto
          442 25 288 318 408 vvcurveto
          -105 callsubr
          -104 callsubr
          -102 callsubr
        </CharString>
        <CharString name="Oslash">
          11 callsubr
          190 callsubr
        </CharString>
        <CharString name="Oslashacute">
          1739 816 -63 callsubr
          -638 -815 rmoveto
          190 callsubr
        </CharString>
        <CharString name="Otilde">
          1739 998 -98 callgsubr
          -25 -33 -46 131 callsubr
          -118 -87 9 callsubr
          -39 callgsubr
          -917 -822 -103 callsubr
          -105 callsubr
          -104 callsubr
          -102 callsubr
        </CharString>
        <CharString name="Otildeacute">
          1739 1205 25 callsubr
          473 -233 -5 callsubr
          -30 -32 7 11 -41 hvcurveto
          -40 12 rlineto
          14 -52 -51 12 -56 hhcurveto
          -127 -76 -80 callgsubr
          27 21 53 30 32 -7 -11 40 vhcurveto
          -95 callgsubr
          -922 -838 -103 callsubr
          -105 callsubr
          -104 callsubr
          -102 callsubr
        </CharString>
        <CharString name="Otildedieresis">
          1739 697 1816 rmoveto
          67 54 42 -77 callgsubr
          369 hmoveto
          66 54 42 60 61 -54 41 -66 hvcurveto
          -15 hlineto
          -67 -54 -41 -61 -60 54 -42 67 hvcurveto
          -34 -259 -5 callsubr
          -30 -32 7 11 -41 hvcurveto
          -40 12 rlineto
          14 -52 -51 12 -56 hhcurveto
          -127 -76 -80 callgsubr
          27 21 53 30 32 -7 -11 40 vhcurveto
          -95 callgsubr
          -922 -838 -103 callsubr
          -105 callsubr
          -104 callsubr
          -102 callsubr
        </CharString>
        <CharString name="Otildemacron">
          1739 529 1850 rmoveto
          677 136 -677 hlineto
          474 -429 -5 callsubr
          -30 -32 7 11 -41 hvcurveto
          -40 12 rlineto
          14 -52 -51 12 -56 hhcurveto
          -127 -76 -80 callgsubr
          27 21 53 30 32 -7 -11 40 vhcurveto
          -95 callgsubr
          -922 -838 -103 callsubr
          -105 callsubr
          -104 callsubr
          -102 callsubr
        </CharString>
        <CharString name="P">
          1507 1437 1017 55 callsubr
        </CharString>
        <CharString name="Pacute">
          1507 697 -69 callsubr
          838 -517 55 callsubr
        </CharString>
        <CharString name="Pdotaccent">
          1507 748 66 callsubr
          71 -63 89 hvcurveto
          689 -520 55 callsubr
        </CharString>
        <CharString name="Pecyrillic">
          1728 1535 -55 callsubr
          -75 callsubr
          -1621 38 callsubr
          -107 callsubr
          -35 callsubr
          1142 494 -1142 vlineto
          -85 -21 -24 -108 -19 vhcurveto
          -78 693 78 vlineto
          94 callsubr
        </CharString>
        <CharString name="Phigreek">
          2013 63 721 rmoveto
          -315 272 -183 474 -12 vhcurveto
          -3 -86 -28 -29 -119 -18 rrcurveto
          -78 695 78 vlineto
          -119 18 -29 29 -3 86 rrcurveto
          467 12 280 176 319 vvcurveto
          317 -290 182 -457 13 vhcurveto
          3 88 27 30 121 18 rrcurveto
          78 -695 -78 vlineto
          121 -18 27 -30 2 -88 rrcurveto
          -449 -13 -297 -174 -322 vvcurveto
          1461 2 rmoveto
          -243 -126 -155 -195 -22 vhcurveto
          835 vlineto
          210 -21 111 -156 -238 vvcurveto
          -1035 hmoveto
          235 120 157 200 23 vhcurveto
          -836 vlineto
          -201 22 -119 154 245 vvcurveto
          endchar
        </CharString>
        <CharString name="Pigreek">
          1702 1508 -55 callsubr
          -75 callsubr
          -1594 38 callsubr
          -107 callsubr
          -35 callsubr
          1142 467 -1142 vlineto
          -85 -20 -24 -109 -19 vhcurveto
          -78 693 78 vlineto
          94 callsubr
        </CharString>
        <CharString name="Psigreek">
          1986 1190 229 rmoveto
          261 vlineto
          365 15 181 126 53 357 rrcurveto
          30 204 18 122 31 34 92 5 rlinecurve
          78 vlineto
          6 -35 -74 7 -66 hhcurveto
          -199 -104 -74 -223 -33 hvcurveto
          -31 -207 -35 -230 -50 -98 -143 -23 rlinecurve
          649 vlineto
          87 21 23 108 18 vhcurveto
          78 -652 -78 vlineto
          108 -18 22 -23 -87 vvcurveto
          -649 vlineto
          -144 23 -49 98 -36 230 -31 207 rcurveline
          223 -33 -104 74 -199 hhcurveto
          -65 -75 -7 -6 -35 hvcurveto
          -78 vlineto
          93 -5 31 -34 18 -122 rrcurveto
          29 -204 54 -357 181 -126 365 -15 rlinecurve
          -261 vlineto
          -100 -23 -32 -128 -19 vhcurveto
          -78 694 -96 callgsubr
          endchar
        </CharString>
        <CharString name="Q">
          11 callsubr
          -397 261 -279 378 -58 vhcurveto
          140 -139 rlineto
          -181 173 114 -53 166 hhcurveto
          130 127 35 61 105 hvcurveto
          72 vlineto
          -117 -14 -104 45 -183 150 -82 69 rcurveline
          291 110 179 265 321 vvcurveto
          447 -333 297 -457 -475 -313 -326 -425 vhcurveto
          467 15 rmoveto
          380 92 251 222 206 124 -264 -390 -1 vhcurveto
          -381 -93 -251 -221 -206 -123 265 390 vhcurveto
          endchar
        </CharString>
        <CharString name="R">
          1523 1409 1052 154 callsubr
          endchar
        </CharString>
        <CharString name="Racute">
          1523 683 183 callsubr
          824 -482 154 callsubr
          endchar
        </CharString>
        <CharString name="Rcaron">
          1523 994 136 callsubr
          -51 callgsubr
          319 -802 154 callsubr
          endchar
        </CharString>
        <CharString name="Rcommaaccent">
          -64 callgsubr
          -194 -1501 -37 callsubr
          -131 -97 -53 callsubr
          -31 callsubr
          -33 callsubr
        </CharString>
        <CharString name="Rdblgrave">
          1523 580 1840 rmoveto
          -347 -92 callgsubr
          -312 -8 hlineto
          217 -298 rlineto
          102 hlineto
          416 -482 154 callsubr
          endchar
        </CharString>
        <CharString name="Rdotaccent">
          1523 734 91 callsubr
          675 -485 154 callsubr
          endchar
        </CharString>
        <CharString name="Rdotbelow">
          -64 callgsubr
          -175 -1163 -71 callsubr
        </CharString>
        <CharString name="Rdotbelowmacron">
          1523 419 2 callsubr
          990 -702 154 callsubr
          -175 -1163 -71 callsubr
        </CharString>
        <CharString name="Rhogreek">
          1507 1437 1017 55 callsubr
        </CharString>
        <CharString name="Rinvertedbreve">
          1523 733 1901 rmoveto
          -214 -108 -139 -144 -20 2 -99 callgsubr
          132 132 99 -61 -88 vhcurveto
          -2 87 vlineto
          3 17 2 20 20 vvcurveto
          144 -108 139 -215 vhcurveto
          676 -849 154 callsubr
          endchar
        </CharString>
        <CharString name="Rlinebelow">
          -64 callgsubr
          -500 -1401 rmoveto
          649 175 -649 hlineto
          endchar
        </CharString>
        <CharString name="S">
          1325 615 -26 103 callsubr
          endchar
        </CharString>
        <CharString name="Sacute">
          1325 651 -63 callsubr
          61 -1560 103 callsubr
          endchar
        </CharString>
        <CharString name="Sacutedotaccent">
          1325 702 1774 rmoveto
          128 callsubr
          338 -154 rmoveto
          169 vlineto
          -675 -194 rlineto
          -62 vlineto
          250 -1559 103 callsubr
          endchar
        </CharString>
        <CharString name="Scaron">
          1325 963 -39 callsubr
          26 callsubr
          -444 -1880 103 callsubr
          endchar
        </CharString>
        <CharString name="Scarondotaccent">
          1325 702 1796 rmoveto
          128 callsubr
          43 callgsubr
          318 179 rlineto
          -434 -1752 103 callsubr
          endchar
        </CharString>
        <CharString name="Scedilla">
          1325 618 -471 rmoveto
          179 callsubr
          60 65 rlineto
          321 20 241 162 284 vvcurveto
          221 -128 157 -276 88 vhcurveto
          -131 42 rlineto
          -158 51 -73 65 107 vvcurveto
          112 84 80 158 184 133 -139 -218 47 vhcurveto
          74 hlineto
          -8 369 rlineto
          56 -87 -160 37 -193 hhcurveto
          -389 -239 -176 -281 -217 140 -150 263 -83 hvcurveto
          131 -42 rlineto
          164 -53 68 -73 -112 vvcurveto
          -119 -95 -85 -155 -198 -177 148 256 -54 vhcurveto
          -74 hlineto
          12 -408 102 -56 179 -41 195 -4 rlinecurve
          -115 -132 80 callsubr
          121 callsubr
          endchar
        </CharString>
        <CharString name="Schwa">
          1560 719 -26 rmoveto
          478 282 303 440 500 -349 254 -471 -215 -186 -36 -56 -89 hvcurveto
          -9 -414 rlineto
          75 hlineto
          230 55 134 170 211 hhcurveto
          243 139 -236 -413 4 hvcurveto
          -958 hlineto
          -4 -29 -5 -44 -42 vvcurveto
          -374 235 -253 430 vhcurveto
          -260 570 rmoveto
          25 1 27 2 25 vhcurveto
          558 2 rlineto
          -346 -13 -96 -198 -189 hhcurveto
          -196 -67 219 246 hvcurveto
          endchar
        </CharString>
        <CharString name="Scircumflex">
          1325 476 -54 callsubr
          77 callsubr
          235 -1560 103 callsubr
          endchar
        </CharString>
        <CharString name="Scommaaccent">
          1325 615 -26 103 callsubr
          13 -445 -37 callsubr
          -132 -96 -53 callsubr
          -31 callsubr
          -33 callsubr
        </CharString>
        <CharString name="Sdotaccent">
          1325 702 66 callsubr
          71 -63 89 hvcurveto
          -87 -1563 103 callsubr
          endchar
        </CharString>
        <CharString name="Sdotbelow">
          1325 615 -26 103 callsubr
          32 -107 -52 callsubr
        </CharString>
        <CharString name="Sdotbelowdotaccent">
          1325 702 66 callsubr
          71 -63 89 hvcurveto
          -87 -1563 103 callsubr
          32 -107 -52 callsubr
        </CharString>
        <CharString name="Shacyrillic">
          2510 2316 -55 callsubr
          -75 callsubr
          -693 -78 vlineto
          108 74 callgsubr
          24 109 19 vhcurveto
          78 -682 -46 callgsubr
          -426 -97 callgsubr
          2402 78 vlineto
          94 callsubr
        </CharString>
        <CharString name="Shchacyrillic">
          2534 2498 96 rmoveto
          -182 1135 hlineto
          90 -75 callsubr
          -693 -78 vlineto
          108 74 callgsubr
          23 109 20 vhcurveto
          78 -682 -78 vlineto
          108 -20 21 -23 -85 vvcurveto
          -1142 -426 -97 callgsubr
          2013 vlineto
          227 54 -56 -279 82 hvcurveto
          76 hlineto
          endchar
        </CharString>
        <CharString name="Sigmagreek">
          79 callgsubr
          474 -698 -465 -455 rlineto
          -217 1191 vlineto
          12 567 rlineto
          -87 hlineto
          -227 -55 -71 -51 -283 hhcurveto
          -495 hlineto
          593 518 0 23 -344 525 215 -7 281 -12 70 -73 58 -232 rlinecurve
          75 hlineto
          endchar
        </CharString>
        <CharString name="Softsigncyrillic">
          1487 1428 -53 callgsubr
          -185 335 hlineto
          99 24 32 127 19 -90 callgsubr
          -107 callsubr
          754 66 callgsubr
          -6 callgsubr
        </CharString>
        <CharString name="T">
          1412 -38 callsubr
          -60 callsubr
          -50 callsubr
          71 callsubr
        </CharString>
        <CharString name="Taugreek">
          1412 -38 callsubr
          -60 callsubr
          -50 callsubr
          71 callsubr
        </CharString>
        <CharString name="Tbar">
          1412 210 695 rmoveto
          284 -467 hlineto
          -100 -23 -31 -128 -20 vhcurveto
          -77 725 77 vlineto
          -127 20 -24 31 100 vvcurveto
          467 285 90 -285 569 vlineto
          41 -3 217 -20 72 -67 51 -237 rlinecurve
          74 hlineto
          -12 417 -1309 0 -11 -60 callsubr
          3 rcurveline
          -569 -284 vlineto
          endchar
        </CharString>
        <CharString name="Tcaron">
          1412 966 136 callsubr
          74 callsubr
          298 -410 rmoveto
          -1309 hlineto
          -11 -60 callsubr
          -50 callsubr
          71 callsubr
        </CharString>
        <CharString name="Tcedilla">
          1412 677 172 callsubr
          308 78 hlineto
          -127 19 -24 32 100 vvcurveto
          24 callsubr
          -12 417 -1309 0 -11 -60 callsubr
          -50 callsubr
          321 vlineto
          -134 -158 rlineto
          -60 vlineto
          4 9 20 4 16 hhcurveto
          60 39 -25 -43 -45 -41 -24 -61 -48 -49 138 callsubr
        </CharString>
        <CharString name="Tcircumflexbelow">
          1412 -38 callsubr
          -60 callsubr
          -50 callsubr
          725 -48 callsubr
          24 callsubr
          -909 -1489 78 callsubr
          142 callsubr
        </CharString>
        <CharString name="Tcommaaccent">
          1412 -38 callsubr
          -60 callsubr
          -50 callsubr
          725 -48 callsubr
          24 callsubr
          -685 -1498 -37 callsubr
          -132 -96 -53 callsubr
          -31 callsubr
          -33 callsubr
        </CharString>
        <CharString name="Tdotaccent">
          1412 706 91 callsubr
          654 -93 rmoveto
          -1309 hlineto
          -11 -60 callsubr
          -50 callsubr
          71 callsubr
        </CharString>
        <CharString name="Tdotbelow">
          1412 -38 callsubr
          -60 callsubr
          -50 callsubr
          725 -48 callsubr
          24 callsubr
          -666 -1160 -52 callsubr
        </CharString>
        <CharString name="Tecyrillic">
          1412 -38 callsubr
          -60 callsubr
          -50 callsubr
          71 callsubr
        </CharString>
        <CharString name="Thetagreek">
          1755 878 -27 rmoveto
          481 317 327 425 448 -339 297 -460 -481 -317 -326 -426 -447 339 -298 460 hvcurveto
          4 93 rmoveto
          -235 -136 256 411 406 107 239 255 236 135 -254 -413 -406 -108 -239 -254 hvcurveto
          -251 401 rmoveto
          59 hlineto
          135 21 44 62 101 hhcurveto
          47 hlineto
          100 45 -62 -135 20 hvcurveto
          59 505 -59 hlineto
          -134 -20 -45 -61 -100 hhcurveto
          -47 hlineto
          -101 -44 61 134 -21 hvcurveto
          -59 hlineto
          endchar
        </CharString>
        <CharString name="Thorn">
          1489 1434 749 rmoveto
          272 -244 123 -411 vhcurveto
          -162 72 hlineto
          99 24 32 127 19 -90 callgsubr
          -107 callsubr
          714 -48 callsubr
          96 162 vlineto
          392 1 263 150 273 vvcurveto
          -445 -21 rmoveto
          -191 -117 -112 -191 -8 vhcurveto
          -64 -3 0 641 64 -2 rlineto
          204 -9 104 -132 -184 vvcurveto
          endchar
        </CharString>
        <CharString name="Tlinebelow">
          1412 -38 callsubr
          -60 callsubr
          -50 callsubr
          725 -48 callsubr
          24 callsubr
          -992 -1398 -79 callsubr
        </CharString>
        <CharString name="Tsecyrillic">
          1752 1717 96 rmoveto
          -182 1135 hlineto
          90 -75 callsubr
          -693 -46 callgsubr
          -494 -97 callgsubr
          1232 vlineto
          227 54 -56 -279 81 hvcurveto
          77 hlineto
          endchar
        </CharString>
        <CharString name="Tshecyrillic">
          1894 -38 callsubr
          225 callsubr
          440 vlineto
          28 46 69 16 78 hhcurveto
          151 84 -87 -193 hvcurveto
          -419 554 78 vlineto
          -109 19 -21 24 85 vvcurveto
          200 vlineto
          306 -212 124 -279 -159 -127 -35 -46 -75 vhcurveto
          597 90 callgsubr
        </CharString>
        <CharString name="U">
          1556 167 1236 -86 callsubr
        </CharString>
        <CharString name="Uacute">
          1556 813 -69 callsubr
          -548 -298 -86 callsubr
        </CharString>
        <CharString name="Ubreve">
          1556 864 1561 rmoveto
          214 108 138 144 21 -1 20 -3 17 hvcurveto
          -88 -3 hlineto
          -89 -97 -60 -133 -132 -99 99 callsubr
          -1 -19 callsubr
          -697 -325 -86 callsubr
        </CharString>
        <CharString name="Ubrevecyrillic">
          1481 853 -18 callgsubr
          -629 -1402 196 callsubr
        </CharString>
        <CharString name="Ucaron">
          1556 1125 -39 callsubr
          -65 callgsubr
          -1053 -618 -86 callsubr
        </CharString>
        <CharString name="Ucircumflex">
          1556 638 -54 callsubr
          77 callsubr
          -375 -298 -86 callsubr
        </CharString>
        <CharString name="Ucircumflexbelow">
          108 callsubr
          429 -1698 rmoveto
          243 -25 callsubr
        </CharString>
        <CharString name="Ucyrillic">
          1481 224 153 196 callsubr
        </CharString>
        <CharString name="Udblgrave">
          1556 710 1840 rmoveto
          -346 -8 hlineto
          349 -298 rlineto
          109 hlineto
          294 306 rmoveto
          -41 callgsubr
          -957 -298 -86 callsubr
        </CharString>
        <CharString name="Udieresis">
          1556 681 1548 rmoveto
          44 callsubr
          7 callsubr
          0 callsubr
          -15 callsubr
          -880 -312 -86 callsubr
        </CharString>
        <CharString name="Udieresisacute">
          1556 1201 25 callsubr
          168 -240 rmoveto
          67 53 42 61 60 -53 42 -67 hvcurveto
          -15 69 callsubr
          -867 -314 -86 callsubr
        </CharString>
        <CharString name="Udieresisbelow">
          108 callsubr
          441 -1670 rmoveto
          92 73 63 87 88 -73 62 -92 -91 -74 -62 -88 -87 74 -63 91 hvcurveto
          461 hmoveto
          127 callsubr
          endchar
        </CharString>
        <CharString name="Udieresiscaron">
          1556 1201 -1 callgsubr
          -507 -423 rmoveto
          67 53 42 61 60 -53 42 -67 hvcurveto
          -15 69 callsubr
          -867 -314 -86 callsubr
        </CharString>
        <CharString name="Udieresisgrave">
          1556 527 92 callgsubr
          167 -497 rmoveto
          67 53 42 61 60 -53 42 -67 hvcurveto
          -15 69 callsubr
          -867 -314 -86 callsubr
        </CharString>
        <CharString name="Udieresismacron">
          1556 526 77 callgsubr
          53 42 61 60 -53 42 -67 hvcurveto
          -15 69 callsubr
          -867 -314 -86 callsubr
        </CharString>
        <CharString name="Udotbelow">
          108 callsubr
          672 -1369 -71 callsubr
        </CharString>
        <CharString name="Ugrave">
          1556 950 -3 callsubr
          -367 -596 -86 callsubr
        </CharString>
        <CharString name="Uhookabove">
          1556 906 67 callsubr
          87 callsubr
          123 callsubr
          -739 -650 -86 callsubr
        </CharString>
        <CharString name="Uhorn">
          1738 169 546 53 callsubr
        </CharString>
        <CharString name="Uhornacute">
          1738 824 -69 callsubr
          -557 -988 53 callsubr
        </CharString>
        <CharString name="Uhorndotbelow">
          1738 169 546 rmoveto
          -387 276 -185 351 363 225 224 352 3 vhcurveto
          7 832 rlineto
          -4 26 27 -3 25 hhcurveto
          155 102 67 118 110 -86 101 -134 50 hvcurveto
          -77 hlineto
          24 -27 17 -58 -58 vvcurveto
          -124 -1 -87 -110 -182 hhcurveto
          -88 -78 hlineto
          136 -23 19 -26 1 -125 6 -631 rcurveline
          -260 2 -130 -149 -208 hhcurveto
          -208 -140 129 277 hvcurveto
          672 vlineto
          90 23 23 133 23 vhcurveto
          78 -723 -78 vlineto
          120 -22 23 -24 -90 vvcurveto
          642 -1363 -71 callsubr
        </CharString>
        <CharString name="Uhorngrave">
          1738 960 1534 rmoveto
          97 hlineto
          -102 306 rlineto
          -410 -8 hlineto
          -376 -1286 53 callsubr
        </CharString>
        <CharString name="Uhornhookabove">
          1738 917 67 callsubr
          -16 callgsubr
          -748 -1340 53 callsubr
        </CharString>
        <CharString name="Uhorntilde">
          1738 1006 -104 callgsubr
          -10 hvcurveto
          -89 hlineto
          -88 -2 -25 -33 -46 hhcurveto
          -30 -74 callgsubr
          9 callsubr
          1 26 34 46 hhcurveto
          30 25 -59 callgsubr
          -837 -995 53 callsubr
        </CharString>
        <CharString name="Uhungarumlaut">
          1556 658 1840 -15 callgsubr
          -1244 -604 -86 callsubr
        </CharString>
        <CharString name="Uinvertedbreve">
          1556 864 1901 rmoveto
          -215 -107 -139 -144 -20 1 -99 callgsubr
          19 callgsubr
          139 -214 vhcurveto
          -697 -665 -86 callsubr
        </CharString>
        <CharString name="Umacron">
          1556 549 76 callsubr
          -382 -518 -86 callsubr
        </CharString>
        <CharString name="Umacrondieresis">
          1556 694 1816 rmoveto
          67 53 42 60 61 -53 41 -67 hvcurveto
          -15 hlineto
          -67 -53 -41 -61 -60 -33 callgsubr
          -77 callgsubr
          -483 -231 rmoveto
          626 135 -626 hlineto
          -384 -484 -86 callsubr
        </CharString>
        <CharString name="Uogonek">
          1556 841 -483 rmoveto
          116 96 56 84 34 hvcurveto
          75 vlineto
          -15 -14 -26 -11 -33 hhcurveto
          -70 -67 76 108 35 7 32 12 23 hvcurveto
          310 38 175 219 4 316 rrcurveto
          9 627 3 134 18 33 112 19 rlinecurve
          78 -408 -78 vlineto
          125 -21 20 -32 2 -137 9 -597 rcurveline
          -279 5 -140 -148 -208 169 callsubr
          -687 vlineto
          -384 268 -187 346 -4 vhcurveto
          -99 -60 -71 -94 -101 vvcurveto
          -121 99 -81 131 vhcurveto
          endchar
        </CharString>
        <CharString name="Upsilondieresisgreek">
          1445 642 141 callsubr
          -15 callsubr
          0 callsubr
          100 callsubr
          -803 -375 -72 callsubr
          -61 callsubr
        </CharString>
        <CharString name="Upsilongreek">
          1445 205 1173 -72 callsubr
          -61 callsubr
        </CharString>
        <CharString name="Upsilontonosgreek">
          1873 632 1173 -72 callsubr
          -127 19 -23 32 100 vvcurveto
          412 vlineto
          291 520 87 156 33 30 103 19 rlinecurve
          78 -423 -78 vlineto
          129 -18 15 -37 -77 -155 rrcurveto
          -208 -414 -223 424 -76 147 14 37 126 16 rlinecurve
          78 -735 -78 vlineto
          98 -19 33 -32 80 -142 rrcurveto
          -518 -124 -12 callsubr
          92 callsubr
        </CharString>
        <CharString name="Uring">
          1556 572 1735 227 callsubr
          35 -50 -70 -72 -35 -48 -48 -48 -35 48 72 vhcurveto
          -614 -499 -86 callsubr
        </CharString>
        <CharString name="Utilde">
          1556 995 -56 callgsubr
          235 callsubr
          9 callsubr
          2 25 -101 callgsubr
          -828 -305 -86 callsubr
        </CharString>
        <CharString name="Utildeacute">
          1556 1201 25 callsubr
          474 -233 -5 callsubr
          -12 callgsubr
          31 32 -7 -11 40 hvcurveto
          -95 callgsubr
          -833 -321 -86 callsubr
        </CharString>
        <CharString name="Utildebelow">
          108 callsubr
          802 -1669 rmoveto
          118 85 150 callsubr
          -48 hhcurveto
          -30 -91 callgsubr
          -85 -87 -220 11 hvcurveto
          84 hlineto
          89 1 26 33 47 hhcurveto
          31 25 -12 -26 -48 callgsubr
        </CharString>
        <CharString name="V">
          94 callgsubr
          endchar
        </CharString>
        <CharString name="Vdotbelow">
          94 callgsubr
          575 -1282 -71 callsubr
        </CharString>
        <CharString name="Vecyrillic">
          1537 1467 425 110 callsubr
        </CharString>
        <CharString name="Vtilde">
          1507 988 -56 callgsubr
          -90 hlineto
          -88 -1 -26 -33 -46 hhcurveto
          -30 -25 12 25 -39 hvcurveto
          -30 19 rlineto
          38 -58 -51 20 -62 hhcurveto
          -119 -86 9 callsubr
          2 25 34 47 hhcurveto
          30 -67 callgsubr
          -799 -392 rmoveto
          207 callsubr
          endchar
        </CharString>
        <CharString name="W">
          2319 181 1149 15 callsubr
        </CharString>
        <CharString name="Wacute">
          2319 1226 -69 callsubr
          -947 -385 15 callsubr
        </CharString>
        <CharString name="Wcircumflex">
          2319 1051 -54 callsubr
          77 callsubr
          -774 -385 15 callsubr
        </CharString>
        <CharString name="Wdieresis">
          2319 1095 22 callsubr
          -81 -15 callsubr
          -1279 -399 15 callsubr
        </CharString>
        <CharString name="Wdotaccent">
          2319 1277 66 callsubr
          71 -63 89 hvcurveto
          -1096 -388 15 callsubr
        </CharString>
        <CharString name="Wdotbelow">
          2319 181 1149 rmoveto
          351 -1150 308 0 321 1066 310 -1066 314 0 347 1130 57 186 33 33 107 18 rlinecurve
          78 -436 -78 vlineto
          133 -20 16 -37 -44 -172 rrcurveto
          -210 -795 -219 815 -43 157 9 31 129 21 rlinecurve
          78 -701 -78 vlineto
          126 -20 12 -30 -40 -153 rrcurveto
          -217 -821 -216 805 -42 162 18 36 135 21 rlinecurve
          78 -746 -78 vlineto
          104 -17 33 -34 51 -166 rrcurveto
          977 -1282 124 callsubr
        </CharString>
        <CharString name="Wgrave">
          2319 1363 -3 callsubr
          -766 -683 15 callsubr
        </CharString>
        <CharString name="X">
          1482 282 313 52 callsubr
        </CharString>
        <CharString name="Xdieresis">
          1482 668 141 callsubr
          -15 callsubr
          0 callsubr
          100 callsubr
          -752 -1235 52 callsubr
        </CharString>
        <CharString name="Xdotaccent">
          1482 851 125 callsubr
          -569 -1224 52 callsubr
        </CharString>
        <CharString name="Xigreek">
          1375 1288 1444 rmoveto
          -1199 hlineto
          -22 -493 rlineto
          74 hlineto
          183 46 66 31 249 hhcurveto
          371 hlineto
          249 66 -31 -183 46 hvcurveto
          74 hlineto
          -669 -275 rmoveto
          98 16 callgsubr
          -98 hlineto
          -159 -50 45 148 -29 hvcurveto
          -70 -486 70 hlineto
          148 29 50 46 159 hhcurveto
          670 -676 rmoveto
          18 547 rlineto
          -74 hlineto
          -220 -50 -69 -40 -272 hhcurveto
          -349 236 callsubr
          rlineto
          endchar
        </CharString>
        <CharString name="Xigreek.1">
          1376 640 676 rmoveto
          12 -389 -139 236 callsubr
          1242 0 19 547 rlineto
          -74 hlineto
          -220 -51 -69 -40 -272 hhcurveto
          -137 389 12 16 callgsubr
          -12 390 148 hlineto
          249 67 -32 -182 45 hvcurveto
          75 hlineto
          -20 493 -1200 0 -22 -493 rlineto
          75 hlineto
          182 45 67 32 249 hhcurveto
          149 -390 -12 hlineto
          -160 -49 45 148 -29 hvcurveto
          -70 -486 70 hlineto
          148 29 49 46 160 hhcurveto
          endchar
        </CharString>
        <CharString name="Y">
          1445 205 1173 -72 callsubr
          -61 callsubr
        </CharString>
        <CharString name="Yacute">
          1445 774 -69 callsubr
          -471 -361 -72 callsubr
          -61 callsubr
        </CharString>
        <CharString name="Ycircumflex">
          1445 599 1534 rmoveto
          243 137 45 callgsubr
          -298 -361 -72 callsubr
          -61 callsubr
        </CharString>
        <CharString name="Ydieresis">
          1445 642 141 callsubr
          -15 callsubr
          0 callsubr
          100 callsubr
          -803 -375 -72 callsubr
          -61 callsubr
        </CharString>
        <CharString name="Ydotaccent">
          1445 825 125 callsubr
          -620 -364 -72 callsubr
          -61 callsubr
        </CharString>
        <CharString name="Ydotbelow">
          1445 205 1173 -72 callsubr
          -128 19 -23 32 100 vvcurveto
          412 vlineto
          211 callsubr
          533 -1306 -52 callsubr
        </CharString>
        <CharString name="Yericyrillic">
          2216 1428 -53 callgsubr
          -185 335 hlineto
          99 24 32 127 19 -90 callgsubr
          -107 callsubr
          754 vlineto
          394 226 176 270 hvcurveto
          594 -233 -81 callsubr
          -703 -78 vlineto
          118 -21 22 -24 -90 vvcurveto
          -1018 8 callsubr
          31 callsubr
          -1039 230 rmoveto
          -205 -90 -6 callgsubr
        </CharString>
        <CharString name="Ygrave">
          1445 910 1534 rmoveto
          97 hlineto
          -102 306 rlineto
          -410 -8 hlineto
          -290 -659 -72 callsubr
          -61 callsubr
        </CharString>
        <CharString name="Yhookabove">
          1445 867 67 callsubr
          -16 callgsubr
          -662 -713 -72 callsubr
          -61 callsubr
        </CharString>
        <CharString name="Yicyrillic">
          811 223 22 callsubr
          7 callsubr
          29 -1335 -81 callsubr
          -98 callsubr
          -107 callsubr
          -83 callsubr
        </CharString>
        <CharString name="Ymacron">
          1445 510 76 callsubr
          -305 -581 -72 callsubr
          -61 callsubr
        </CharString>
        <CharString name="Ytilde">
          1445 956 -104 callgsubr
          -10 hvcurveto
          -89 hlineto
          -88 -2 -25 -33 -46 hhcurveto
          -30 -74 callgsubr
          9 callsubr
          1 26 34 46 hhcurveto
          30 25 -59 callgsubr
          -751 -368 -72 callsubr
          -61 callsubr
        </CharString>
        <CharString name="Z">
          1347 1263 hmoveto
          -78 callsubr
          233 callsubr
          endchar
        </CharString>
        <CharString name="Zacute">
          1347 652 -69 callsubr
          709 -1534 rmoveto
          -78 callsubr
          233 callsubr
          endchar
        </CharString>
        <CharString name="Zcaron">
          1347 964 -39 callsubr
          -98 0 -51 callgsubr
          204 -1854 rmoveto
          -78 callsubr
          233 callsubr
          endchar
        </CharString>
        <CharString name="Zcircumflex">
          1347 477 93 callgsubr
          -55 callgsubr
          882 -1534 rmoveto
          -78 callsubr
          233 callsubr
          endchar
        </CharString>
        <CharString name="Zdotaccent">
          1347 703 125 callsubr
          560 -1537 rmoveto
          -78 callsubr
          233 callsubr
          endchar
        </CharString>
        <CharString name="Zdotbelow">
          55 callgsubr
          614 -136 rmoveto
          -88 -71 -63 -88 -87 71 -64 88 88 72 64 87 88 -72 63 -88 hvcurveto
          endchar
        </CharString>
        <CharString name="Zecyrillic">
          1323 1253 420 rmoveto
          230 -217 112 -267 16 vhcurveto
          246 29 197 112 198 vvcurveto
          239 -243 114 -398 -184 -170 -43 -53 -91 vhcurveto
          -8 -379 rlineto
          74 hlineto
          217 48 118 153 180 hhcurveto
          157 79 -102 -174 -189 -105 -103 -188 hvcurveto
          -114 -96 114 hlineto
          214 112 -107 -194 -211 -110 -110 -177 -166 -135 139 236 -52 hvcurveto
          -74 hlineto
          9 -379 rlineto
          -57 96 175 -44 181 hhcurveto
          383 316 139 307 hvcurveto
          endchar
        </CharString>
        <CharString name="Zetagreek">
          1347 1263 hmoveto
          -78 callsubr
          233 callsubr
          endchar
        </CharString>
        <CharString name="Zhecyrillic">
          2225 466 hmoveto
          359 683 82 1 rlineto
          -478 vlineto
          -87 -20 -23 -110 -18 vhcurveto
          -78 653 78 vlineto
          -109 18 -20 23 87 vvcurveto
          478 vlineto
          81 -1 359 -683 rlineto
          490 74 hlineto
          -66 26 -34 39 -122 227 rrcurveto
          -333 629 139 143 159 158 69 44 129 26 rlinecurve
          78 -487 -78 vlineto
          127 -19 12 -37 -103 -124 rrcurveto
          -339 -406 -81 -1 rlineto
          459 vlineto
          87 20 23 109 18 vhcurveto
          78 -653 -78 vlineto
          110 -18 20 -23 -87 vvcurveto
          -459 vlineto
          -81 1 -339 406 -103 124 13 37 125 19 rlinecurve
          78 -487 -78 vlineto
          130 -26 62 -41 158 -160 rrcurveto
          154 -162 -323 -611 -122 -227 -34 -39 -66 -26 rlinecurve
          -74 vlineto
          endchar
        </CharString>
        <CharString name="Zlinebelow">
          55 callgsubr
          289 -374 rmoveto
          650 176 -650 hlineto
          endchar
        </CharString>
        <CharString name="a">
          1249 97 callsubr
          -97 callsubr
        </CharString>
        <CharString name="a.dnum">
          781 230 -12 rmoveto
          103 78 38 62 25 hvcurveto
          -62 15 76 -35 79 hhcurveto
          60 53 14 20 28 hvcurveto
          50 vlineto
          -1 -5 -8 -1 -9 hhcurveto
          -28 -23 19 41 hvcurveto
          223 vlineto
          148 -109 64 -190 -187 -106 -72 -82 -54 44 -37 32 callgsubr
          230 callsubr
          -81 vvcurveto
          -79 67 -56 107 vhcurveto
          67 173 rmoveto
          52 30 35 78 17 vhcurveto
          25 6 rlineto
          -147 vlineto
          -21 -11 -24 -13 -32 hhcurveto
          -37 -29 24 47 hvcurveto
          endchar
        </CharString>
        <CharString name="a.numr">
          776 230 655 76 callgsubr
          19 28 hvcurveto
          51 vlineto
          -2 -5 -8 -1 -9 hhcurveto
          -28 -23 19 41 hvcurveto
          224 vlineto
          147 -109 64 -190 -187 -106 -71 -83 -53 44 -38 32 callgsubr
          -37 -90 hvcurveto
          -42 vlineto
          -115 -22 rlineto
          -193 -37 -66 -63 -82 vvcurveto
          -79 67 -56 107 vhcurveto
          67 173 rmoveto
          53 33 callgsubr
          23 47 hvcurveto
          endchar
        </CharString>
        <CharString name="a.sups">
          781 230 823 76 callgsubr
          20 28 hvcurveto
          50 vlineto
          -2 -5 -8 0 -9 hhcurveto
          -28 -23 19 41 hvcurveto
          223 vlineto
          147 -109 64 -190 -187 -106 -71 -82 -54 44 -38 61 61 45 43 55 30 -13 25 -22 17 vhcurveto
          2 13 14 2 14 hhcurveto
          85 46 230 callsubr
          -82 vvcurveto
          -79 67 -56 107 vhcurveto
          67 174 rmoveto
          52 33 callgsubr
          24 47 hvcurveto
          endchar
        </CharString>
        <CharString name="aacute">
          1249 510 -49 callsubr
          -398 vlineto
          -133 -395 rlineto
          -47 -1153 -99 callsubr
          -97 callsubr
        </CharString>
        <CharString name="abreve">
          1249 576 6 callsubr
          -2 -23 -24 vvcurveto
          -167 117 -158 236 vhcurveto
          -212 -1173 -99 callsubr
          -97 callsubr
        </CharString>
        <CharString name="abreveacute">
          1249 905 -16 callsubr
          329 -313 -28 callsubr
          -8 hvcurveto
          -88 82 callsubr
          -212 -1129 -99 callsubr
          -97 callsubr
        </CharString>
        <CharString name="abrevecyrillic">
          1249 576 1144 rmoveto
          160 callsubr
          -212 -1166 -99 callsubr
          -97 callsubr
        </CharString>
        <CharString name="abrevedotbelow">
          1249 576 6 callsubr
          -2 -23 -24 vvcurveto
          -167 117 -158 236 vhcurveto
          -212 -1173 -99 callsubr
          51 callsubr
          188 -730 1 callsubr
        </CharString>
        <CharString name="abrevegrave">
          1249 247 -17 callsubr
          329 -615 -28 callsubr
          -8 hvcurveto
          -88 82 callsubr
          -212 -1129 -99 callsubr
          -97 callsubr
        </CharString>
        <CharString name="abrevehookabove">
          1249 566 12 callgsubr
          81 54 96 vvcurveto
          94 -90 61 -122 vhcurveto
          10 -590 -28 callsubr
          -8 hvcurveto
          -88 82 callsubr
          -212 -1129 -99 callsubr
          -97 callsubr
        </CharString>
        <CharString name="abrevetilde">
          1249 708 70 callsubr
          216 callsubr
          -132 -342 -28 callsubr
          -8 hvcurveto
          -88 82 callsubr
          -212 -1129 -99 callsubr
          -97 callsubr
        </CharString>
        <CharString name="acaron">
          1249 837 -73 callsubr
          5 callsubr
          42 callsubr
          -571 -1566 -99 callsubr
          -97 callsubr
        </CharString>
        <CharString name="acircumflex">
          1249 315 -58 callsubr
          -23 callsubr
          147 -1153 -99 callsubr
          -97 callsubr
        </CharString>
        <CharString name="acircumflexacute">
          1249 905 -16 callsubr
          -312 vmoveto
          98 callsubr
          -303 211 -53 0 -302 -211 rlineto
          117 -1207 -99 callsubr
          -97 callsubr
        </CharString>
        <CharString name="acircumflexdotbelow">
          1249 315 -58 callsubr
          -23 callsubr
          147 -1153 -99 callsubr
          51 callsubr
          188 -730 1 callsubr
        </CharString>
        <CharString name="acircumflexgrave">
          1249 247 -17 callsubr
          -614 vmoveto
          98 callsubr
          -303 211 -53 0 -302 -211 rlineto
          117 -1207 -99 callsubr
          -97 callsubr
        </CharString>
        <CharString name="acircumflexhookabove">
          1249 828 1697 rmoveto
          -91 -77 -41 -56 -44 hvcurveto
          -57 vlineto
          17 27 -76 callgsubr
          118 callsubr
          -303 211 -53 0 -302 -211 rlineto
          117 -1207 -99 callsubr
          -97 callsubr
        </CharString>
        <CharString name="acircumflextilde">
          1249 708 70 callsubr
          216 callsubr
          -461 -341 rmoveto
          98 callsubr
          -303 211 -53 0 -302 -211 rlineto
          117 -1207 -99 callsubr
          -97 callsubr
        </CharString>
        <CharString name="acute">
          1024 446 -49 callsubr
          -47 callsubr
          endchar
        </CharString>
        <CharString name="acutecmb">
          0 -66 -49 callsubr
          -47 callsubr
          endchar
        </CharString>
        <CharString name="acutecmb.short">
          0 -51 1107 89 callgsubr
          endchar
        </CharString>
        <CharString name="acutedotaccentcmb">
          -2 callgsubr
          -182 rmoveto
          199 vlineto
          -658 -228 rlineto
          -74 vlineto
          endchar
        </CharString>
        <CharString name="acutedotaccentcmb.short">
          0 1774 vmoveto
          128 callsubr
          337 -154 rmoveto
          169 vlineto
          -675 -194 rlineto
          -62 vlineto
          endchar
        </CharString>
        <CharString name="acyrillic">
          1249 97 callsubr
          -97 callsubr
        </CharString>
        <CharString name="adblgrave">
          1249 368 64 callsubr
          -461 -1153 -99 callsubr
          -97 callsubr
        </CharString>
        <CharString name="adieresis">
          1249 328 -20 callsubr
          102 callsubr
          -13 callsubr
          34 callsubr
          -460 -1188 -99 callsubr
          -97 callsubr
        </CharString>
        <CharString name="adieresismacron">
          1249 246 30 callsubr
          150 -510 rmoveto
          71 57 50 70 71 -57 50 -71 hvcurveto
          -14 hlineto
          75 callsubr
          70 57 50 70 71 -57 50 -70 hvcurveto
          -15 hlineto
          37 callsubr
          -391 -1147 -99 callsubr
          -97 callsubr
        </CharString>
        <CharString name="adotaccent">
          1249 576 -40 callsubr
          -46 callsubr
          -212 -1177 -99 callsubr
          -97 callsubr
        </CharString>
        <CharString name="adotbelow">
          1249 97 callsubr
          51 callsubr
          188 -730 1 callsubr
        </CharString>
        <CharString name="adotmacron">
          1249 246 1463 10 callsubr
          44 callgsubr
          60 -54 77 hvcurveto
          -212 -1140 -99 callsubr
          -97 callsubr
        </CharString>
        <CharString name="ae">
          1731 372 -22 151 callsubr
        </CharString>
        <CharString name="aeacute">
          1731 833 -70 callsubr
          -363 -1153 151 callsubr
        </CharString>
        <CharString name="aemacron">
          1731 550 -36 callsubr
          -178 -1434 151 callsubr
        </CharString>
        <CharString name="agrave">
          1249 644 -41 callsubr
          156 -1539 -99 callsubr
          -97 callsubr
        </CharString>
        <CharString name="ahookabove">
          1249 631 133 callsubr
          -102 callgsubr
          -267 -1563 -99 callsubr
          -97 callsubr
        </CharString>
        <CharString name="ainvertedbreve">
          1249 576 1525 rmoveto
          -236 -117 -160 -166 -24 2 226 callsubr
          -212 -1547 -99 callsubr
          -97 callsubr
        </CharString>
        <CharString name="alphagreek">
          1393 477 -21 193 callsubr
        </CharString>
        <CharString name="alphatonosgreek">
          1393 689 1131 rmoveto
          262 386 rlineto
          10 -333 vlineto
          -36 -396 rlineto
          -105 -1152 193 callsubr
        </CharString>
        <CharString name="amacron">
          1249 226 -36 callsubr
          138 -1434 -99 callsubr
          -97 callsubr
        </CharString>
        <CharString name="ampersand">
          1719 529 -24 rmoveto
          187 134 73 139 141 hvcurveto
          178 -188 rlineto
          533 74 hlineto
          -69 22 -64 45 -175 181 rrcurveto
          -150 157 128 156 140 167 50 36 103 16 rlinecurve
          77 vlineto
          -435 -2 rlineto
          -78 vlineto
          113 -16 26 -40 -91 -133 rrcurveto
          -86 -128 -300 317 -5 5 -4 4 -5 5 rlinecurve
          211 60 133 106 143 vvcurveto
          170 -155 127 -280 -306 -186 -162 -205 -110 46 -95 102 -125 vhcurveto
          -243 -65 -134 -146 -191 vvcurveto
          -231 -1 189 -165 275 hhcurveto
          123 1246 rmoveto
          94 57 49 78 90 53 -86 -116 -2 vhcurveto
          -2 -95 -33 -84 -74 -56 rrcurveto
          -123 135 -44 74 85 vvcurveto
          -238 -689 rmoveto
          74 26 60 57 45 vhcurveto
          34 -38 38 -41 43 -44 326 -345 rcurveline
          -38 -60 -59 -14 -63 hhcurveto
          -190 -151 144 197 -1 hvcurveto
          endchar
        </CharString>
        <CharString name="anoteleiagreek">
          578 289 636 rmoveto
          173 callsubr
        </CharString>
        <CharString name="aogonek">
          1248 97 callsubr
          -107 25 124 -60 130 hhcurveto
          12 12 0 1 11 hvcurveto
          -204 -100 -72 -94 -101 vvcurveto
          -110 96 -68 128 108 101 51 80 44 vhcurveto
          75 vlineto
          -15 -16 -29 -9 -31 hhcurveto
          -50 -43 31 65 84 59 79 104 84 hvcurveto
          74 vlineto
          -3 -9 -15 -2 -15 hhcurveto
          -52 -40 34 80 hvcurveto
          446 vlineto
          255 -183 112 -314 -307 -182 -122 -147 -91 73 -64 97 98 74 70 92 59 -32 51 -48 27 vhcurveto
          8 32 35 5 36 hhcurveto
          151 83 -68 -175 hvcurveto
          -88 vlineto
          -201 -41 rlineto
          -326 -65 -115 -110 -153 vvcurveto
          -147 118 -101 182 vhcurveto
          84 309 rmoveto
          105 55 69 147 35 vhcurveto
          56 12 rlineto
          -295 vlineto
          -46 -22 -47 -28 -62 hhcurveto
          -72 -55 51 97 hvcurveto
          endchar
        </CharString>
        <CharString name="approxequal">
          1284 907 806 64 callgsubr
          277 hvcurveto
          -144 hlineto
          -170 -1 -61 -74 -94 hhcurveto
          -518 vmoveto
          -20 callgsubr
          -246 198 hhcurveto
          181 114 132 97 callgsubr
        </CharString>
        <CharString name="aring">
          1249 252 59 callsubr
          -121 -1358 -99 callsubr
          -97 callsubr
        </CharString>
        <CharString name="aringacute">
          1249 905 1527 32 callsubr
          42 callgsubr
          -75 hlineto
          -162 -109 -59 -89 -90 109 -58 162 hvcurveto
          53 -3 callgsubr
          -227 -1200 -99 callsubr
          -97 callsubr
        </CharString>
        <CharString name="aringbelow">
          1249 97 callsubr
          51 callsubr
          -136 -571 rmoveto
          -117 134 -76 190 190 135 75 118 116 -135 77 -190 -190 -134 -77 -116 vhcurveto
          233 hmoveto
          70 38 50 53 54 37 -50 -70 -72 -37 -47 -54 -53 -38 48 71 vhcurveto
          endchar
        </CharString>
        <CharString name="asciicircum">
          1284 598 1444 rmoveto
          -467 -598 111 -103 397 509 399 -510 115 103 -466 599 rlineto
          endchar
        </CharString>
        <CharString name="asciitilde">
          1284 907 536 64 callgsubr
          97 callgsubr
        </CharString>
        <CharString name="asterisk">
          852 411 1101 rmoveto
          29 hlineto
          71 189 rlineto
          110 46 -67 70 -64 hhcurveto
          -66 -65 -68 -112 46 hvcurveto
          106 -192 rmoveto
          14 -27 198 35 rlineto
          119 17 27 91 -33 56 -33 57 -92 24 -73 -97 rrcurveto
          -183 -183 rmoveto
          14 27 -127 156 rlineto
          -73 96 -93 -25 -32 -55 -33 -58 26 -90 120 -16 rrcurveto
          212 -67 rmoveto
          -14 27 -198 -34 rlineto
          -118 -17 -27 -92 32 -55 34 -58 91 -23 74 96 rrcurveto
          183 183 rmoveto
          -15 -26 127 -156 rlineto
          73 -97 93 25 32 56 34 58 -27 89 -119 17 rrcurveto
          -219 4 rmoveto
          -29 hlineto
          -71 -189 rlineto
          -111 -46 68 -69 63 hhcurveto
          67 65 68 112 -46 hvcurveto
          endchar
        </CharString>
        <CharString name="at">
          2093 550 391 rmoveto
          -218 93 -122 151 134 119 87 164 65 vhcurveto
          -2 -8 -3 -23 -9 vvcurveto
          -141 79 -106 211 395 229 320 360 454 -377 314 -532 -579 -462 -435 -596 -534 394 -327 466 174 182 43 82 105 vhcurveto
          -1 80 rlineto
          -82 -134 -148 -20 -159 hhcurveto
          -422 -1 -340 288 474 vvcurveto
          542 421 384 503 480 312 -278 -405 -324 -198 -202 -180 -88 -29 49 108 23 vhcurveto
          146 679 -193 0 -150 -121 rlineto
          87 -33 -76 56 -116 hhcurveto
          -276 -184 -301 -318 hvcurveto
          344 2 rmoveto
          188 89 311 138 53 35 -42 -80 -7 vhcurveto
          -74 -344 rlineto
          -111 -24 -62 -81 -69 hhcurveto
          -55 -24 58 101 hvcurveto
          endchar
        </CharString>
        <CharString name="atilde">
          1249 716 -42 callsubr
          -1 -28 72 callsubr
          -62 -54 -107 callgsubr
          -84 callgsubr
          33 27 27 callsubr
          -352 -1188 -99 callsubr
          -97 callsubr
        </CharString>
        <CharString name="austral">
          1501 204 304 rmoveto
          -62 -176 -31 -31 -108 -19 rrcurveto
          -78 433 78 vlineto
          -138 22 -24 36 54 166 rrcurveto
          29 86 499 0 30 -91 54 -160 -25 -38 -138 -21 rlinecurve
          -78 725 78 vlineto
          -106 18 -32 34 -59 165 -34 93 rcurveline
          231 63 -253 hlineto
          -76 212 rlineto
          329 63 -351 hlineto
          -257 720 -284 0 -256 -720 rlineto
          -350 -63 328 hlineto
          -76 -212 rlineto
          -252 -63 230 hlineto
          235 338 rmoveto
          135 410 138 -410 rlineto
          -364 -275 rmoveto
          70 212 315 0 72 -212 rlineto
          endchar
        </CharString>
        <CharString name="austral.tnum">
          1295 447 vmoveto
          -63 185 vlineto
          -24 -81 -52 -176 -24 -34 -84 -15 rlinecurve
          -78 361 78 vlineto
          -111 16 -18 35 46 171 rrcurveto
          23 84 388 0 24 -88 45 -167 -18 -33 -115 -18 rlinecurve
          -78 668 78 vlineto
          -86 15 -22 37 -50 167 -25 87 rcurveline
          184 63 -203 hlineto
          -62 211 rlineto
          265 63 -284 hlineto
          -214 724 -299 0 -214 -724 rlineto
          -284 -63 266 hlineto
          -63 -211 rlineto
          191 274 rmoveto
          103 380 102 -380 rlineto
          -280 -274 rmoveto
          58 211 239 0 58 -211 rlineto
          endchar
        </CharString>
        <CharString name="b">
          -63 callgsubr
          endchar
        </CharString>
        <CharString name="backslash">
          786 549 -280 rmoveto
          186 hlineto
          -498 1860 rlineto
          -186 hlineto
          endchar
        </CharString>
        <CharString name="baht">
          1498 53 30 rmoveto
          684 -220 63 220 hlineto
          337 9 291 135 263 vvcurveto
          218 -187 123 -281 11 vhcurveto
          217 14 196 94 198 vvcurveto
          204 -209 108 -364 7 vhcurveto
          217 -63 -217 -684 -78 vlineto
          57 callgsubr
          536 1217 rmoveto
          85 -3 rlineto
          22 21 -2 -3 20 hvcurveto
          -513 vlineto
          -1 -8 -8 0 -8 hhcurveto
          -124 -1 rlineto
          380 259 rmoveto
          -142 -61 -79 -108 -27 vhcurveto
          489 vlineto
          114 -37 55 -87 -117 vvcurveto
          -380 -348 rmoveto
          124 -2 rlineto
          8 8 0 -1 8 hvcurveto
          -583 vlineto
          -3 -20 -21 -2 -22 hhcurveto
          -85 -3 rlineto
          423 306 rmoveto
          -147 -74 -99 -138 -39 vhcurveto
          561 vlineto
          138 -32 74 -105 -139 vvcurveto
          endchar
        </CharString>
        <CharString name="baht.tnum">
          1295 25 39 rmoveto
          617 -228 63 228 hlineto
          306 11 257 133 250 28 callgsubr
          196 -185 105 -327 8 vhcurveto
          227 -63 -226 -617 -78 vlineto
          59 callgsubr
          498 1201 rmoveto
          66 -2 rlineto
          19 17 -2 -3 17 hvcurveto
          -506 vlineto
          -1 -8 -7 0 -8 hhcurveto
          -96 -1 rlineto
          323 262 rmoveto
          -136 -50 -82 -91 -30 vhcurveto
          477 vlineto
          92 -38 49 -81 -110 vvcurveto
          -323 -351 rmoveto
          96 -1 rlineto
          8 7 -1 8 hhcurveto
          -577 vlineto
          -17 -3 -17 -1 -19 -1 -66 -2 rcurveline
          362 297 rmoveto
          -140 -65 -96 -115 -39 vhcurveto
          550 vlineto
          117 -34 63 -102 -139 vvcurveto
          endchar
        </CharString>
        <CharString name="bar">
          786 300 -280 rmoveto
          186 1860 -186 hlineto
          endchar
        </CharString>
        <CharString name="bdotaccent">
          1331 337 1582 rmoveto
          105 84 75 102 103 -84 74 -105 -104 -46 callsubr
          926 -1062 198 callsubr
          endchar
        </CharString>
        <CharString name="bdotbelow">
          -63 callgsubr
          -197 -931 -80 callsubr
          -66 callsubr
        </CharString>
        <CharString name="becyrillic">
          1337 1269 502 rmoveto
          297 -214 196 -352 -240 -183 -119 -181 -77 vhcurveto
          -6 32 -3 37 39 vvcurveto
          182 80 141 385 28 vhcurveto
          119 10 332 26 93 101 15 251 rlinecurve
          -79 hlineto
          -19 -50 -64 -11 -236 -24 -245 -25 -151 -61 -120 -104 rrcurveto
          -146 -127 -84 -211 -317 vvcurveto
          -382 198 -252 393 328 276 202 322 vhcurveto
          -412 -15 rmoveto
          -294 -72 -113 -111 -123 -63 158 255 264 66 140 124 116 63 -145 -265 vhcurveto
          endchar
        </CharString>
        <CharString name="betagreek">
          1318 117 -460 rmoveto
          404 hlineto
          -5 216 -4 187 -4 162 rrcurveto
          -71 51 103 -56 130 hhcurveto
          237 214 155 285 275 -168 179 -245 28 hvcurveto
          180 16 156 103 175 vvcurveto
          196 -168 135 -327 -330 -220 -166 -414 vhcurveto
          374 170 rmoveto
          199 45 104 122 106 51 -93 -155 -155 -71 -89 -143 -9 vhcurveto
          1 -265 rlineto
          173 -9 104 -103 -182 vvcurveto
          -168 -95 -74 -109 -74 -67 32 50 -32 vhcurveto
          -9 491 -2 254 172 vvcurveto
          endchar
        </CharString>
        <CharString name="bitcoin">
          1483 53 30 rmoveto
          526 -219 64 219 108 hlineto
          36 36 1 3 35 hvcurveto
          -223 63 230 vlineto
          276 37 217 132 227 vvcurveto
          218 -187 123 -282 11 vhcurveto
          218 14 196 94 198 vvcurveto
          177 -158 105 -280 29 vhcurveto
          225 -63 -220 vlineto
          2 -34 -36 1 -37 hhcurveto
          -108 217 -64 -217 -526 -78 hlineto
          57 callgsubr
          902 953 rmoveto
          -176 -94 -80 -162 -2 vhcurveto
          -110 -1 0 523 71 -3 rlineto
          200 -6 95 -101 -154 vvcurveto
          42 -636 rmoveto
          -186 -119 -110 -218 -7 vhcurveto
          -71 -3 0 594 110 -2 rlineto
          194 -2 104 -118 -166 vvcurveto
          endchar
        </CharString>
        <CharString name="bitcoin.tnum">
          1295 25 39 rmoveto
          467 -228 63 228 108 hlineto
          33 33 1 3 33 hvcurveto
          -232 63 239 vlineto
          250 38 193 128 217 28 callgsubr
          171 -140 101 -252 29 vhcurveto
          234 -64 -228 vlineto
          2 -31 -33 1 -34 hhcurveto
          -108 225 -63 -225 -467 -78 hlineto
          59 callgsubr
          817 948 rmoveto
          -174 -83 -85 -144 -2 vhcurveto
          -87 -1 0 515 57 -2 rlineto
          167 -6 90 -95 -150 vvcurveto
          39 -643 rmoveto
          -179 -110 -107 -186 -6 vhcurveto
          -57 -2 0 586 87 -1 rlineto
          172 -3 94 -121 -167 vvcurveto
          endchar
        </CharString>
        <CharString name="blinebelow">
          -63 callgsubr
          -522 -859 -79 callsubr
        </CharString>
        <CharString name="braceleft">
          786 566 1034 rmoveto
          201 vlineto
          148 11 119 167 vhcurveto
          78 -41 vlineto
          -336 -151 -130 -253 hvcurveto
          -307 vlineto
          -154 -66 -49 -122 vhcurveto
          -75 vlineto
          122 66 -49 -156 hvcurveto
          -304 vlineto
          -253 151 -130 336 vhcurveto
          41 78 hlineto
          -167 -11 119 149 hvcurveto
          200 vlineto
          238 -132 114 -260 32 vhcurveto
          261 31 131 115 238 vvcurveto
          endchar
        </CharString>
        <CharString name="braceright">
          786 219 1034 rmoveto
          -238 132 -115 261 -31 vhcurveto
          -260 -32 -133 -114 -238 vvcurveto
          -200 vlineto
          -149 -10 -119 -167 vhcurveto
          -78 41 vlineto
          336 151 130 253 hvcurveto
          304 vlineto
          156 66 49 122 vhcurveto
          75 vlineto
          -122 -66 49 154 hvcurveto
          307 vlineto
          253 -151 130 -336 vhcurveto
          -41 -78 hlineto
          167 10 -119 -148 hvcurveto
          endchar
        </CharString>
        <CharString name="bracketleft">
          786 176 -284 rmoveto
          564 4 0 79 -225 9 0 1684 225 9 0 79 -564 4 rlineto
          endchar
        </CharString>
        <CharString name="bracketright">
          786 610 1584 rmoveto
          -564 -4 0 -79 224 -9 0 -1684 -224 -9 0 -79 564 -4 rlineto
          endchar
        </CharString>
        <CharString name="breve">
          1024 512 6 callsubr
          -1 callsubr
          endchar
        </CharString>
        <CharString name="breveacutecmb">
          -82 callgsubr
          329 -313 -28 callsubr
          -93 callgsubr
        </CharString>
        <CharString name="breveacutecmb.short">
          0 337 90 callsubr
          338 -257 114 callsubr
        </CharString>
        <CharString name="brevebelowcmb">
          0 -460 vmoveto
          219 109 143 150 22 -2 20 -3 17 hvcurveto
          -84 -2 hlineto
          -91 -100 -61 -139 -137 -102 62 90 vhcurveto
          2 -84 vlineto
          -3 -17 -2 -20 -22 vvcurveto
          -150 109 -143 219 vhcurveto
          endchar
        </CharString>
        <CharString name="brevecmb">
          0 1151 vmoveto
          -29 callgsubr
          -1 callsubr
          endchar
        </CharString>
        <CharString name="brevecmb.short">
          0 1134 vmoveto
          214 108 138 144 21 -1 20 -3 16 hvcurveto
          -88 -2 hlineto
          -89 -97 -60 -133 -132 -99 61 88 vhcurveto
          2 -87 vlineto
          -3 -16 -1 -19 callsubr
          endchar
        </CharString>
        <CharString name="brevecyrilliccmb">
          0 1144 vmoveto
          160 callsubr
          endchar
        </CharString>
        <CharString name="brevecyrilliccmb.short">
          0 1555 vmoveto
          210 144 104 141 81 -55 -8 callgsubr
          36 48 57 vvcurveto
          73 -57 104 callgsubr
          endchar
        </CharString>
        <CharString name="brevegravecmb">
          0 -329 -17 callsubr
          329 -615 -28 callsubr
          -93 callgsubr
        </CharString>
        <CharString name="brevegravecmb.short">
          0 -337 -87 callgsubr
          337 -514 114 callsubr
        </CharString>
        <CharString name="brevehookabovecmb">
          0 -10 12 callgsubr
          82 54 96 vvcurveto
          94 -91 61 -122 vhcurveto
          10 -590 -28 callsubr
          -93 callgsubr
        </CharString>
        <CharString name="brevehookabovecmb.short">
          0 -10 39 callgsubr
          77 40 -26 -36 -36 -39 -28 -86 -14 hvcurveto
          69 -39 rlineto
          161 23 83 47 81 vvcurveto
          80 -92 52 -125 vhcurveto
          10 -500 114 callsubr
        </CharString>
        <CharString name="brevetildecmb">
          0 132 70 callsubr
          168 callsubr
          40 vhcurveto
          39 -81 callgsubr
          -132 -342 -28 callsubr
          -93 callgsubr
        </CharString>
        <CharString name="brevetildecmb.short">
          0 136 1822 rmoveto
          128 76 73 144 callsubr
          -31 -32 7 12 -40 hvcurveto
          -41 11 rlineto
          14 -52 -51 12 87 callgsubr
          20 52 hhcurveto
          30 33 -6 -12 40 hvcurveto
          -95 callgsubr
          -136 -289 114 callsubr
        </CharString>
        <CharString name="brokenbar">
          786 300 789 rmoveto
          186 791 -186 hlineto
          -1860 vmoveto
          186 791 -186 hlineto
          endchar
        </CharString>
        <CharString name="bullet">
          791 396 320 rmoveto
          155 127 128 155 155 -127 128 -155 40 callgsubr
        </CharString>
        <CharString name="c">
          1117 631 -22 19 callsubr
        </CharString>
        <CharString name="cacute">
          1117 574 -49 callsubr
          -47 callsubr
          155 -1153 19 callsubr
        </CharString>
        <CharString name="caret">
          578 252 hmoveto
          -300 -369 90 -87 244 302 248 -303 92 87 -299 370 rlineto
          endchar
        </CharString>
        <CharString name="caron">
          1024 773 -73 callsubr
          5 callsubr
          42 callsubr
          endchar
        </CharString>
        <CharString name="caroncmb">
          0 261 -73 callsubr
          5 callsubr
          42 callsubr
          endchar
        </CharString>
        <CharString name="caroncmb.short">
          0 261 1426 rmoveto
          -244 -136 -243 136 -97 0 214 -305 251 0 214 305 rlineto
          endchar
        </CharString>
        <CharString name="carondotaccentcmb">
          -2 callgsubr
          hmoveto
          -329 -97 -329 97 0 -78 302 -210 54 0 302 210 rlineto
          endchar
        </CharString>
        <CharString name="carondotaccentcmb.short">
          0 1796 vmoveto
          128 callsubr
          43 callgsubr
          317 179 rlineto
          endchar
        </CharString>
        <CharString name="caronslovak">
          1024 433 81 callgsubr
        </CharString>
        <CharString name="caronslovakcmb">
          0 97 81 callgsubr
        </CharString>
        <CharString name="ccaron">
          1117 901 -73 callsubr
          186 callsubr
          -368 -1566 19 callsubr
        </CharString>
        <CharString name="ccedilla">
          1117 596 -471 rmoveto
          147 -34 callgsubr
          93 callsubr
          63 68 175 7 147 66 77 101 rlinecurve
          157 callsubr
          -7 callgsubr
        </CharString>
        <CharString name="ccedillaacute">
          1117 574 -49 callsubr
          -47 callsubr
          120 -1602 rmoveto
          147 -34 callgsubr
          93 callsubr
          63 68 175 7 147 66 77 101 rlinecurve
          157 callsubr
          -7 callgsubr
        </CharString>
        <CharString name="ccircumflex">
          1117 380 63 callsubr
          350 -1153 19 callsubr
        </CharString>
        <CharString name="cdotaccent">
          1117 640 185 callsubr
          -9 -1177 19 callsubr
        </CharString>
        <CharString name="cedi">
          1360 818 -188 rmoveto
          63 201 hlineto
          162 5 161 38 79 53 11 355 rcurveline
          -74 hlineto
          -57 -243 -119 -102 -163 -2 rrcurveto
          1210 vlineto
          169 115 -118 -227 52 hvcurveto
          74 hlineto
          -11 356 -86 51 -134 38 -179 5 rlinecurve
          199 -63 -199 vlineto
          -434 -10 -297 -279 -422 vvcurveto
          -423 299 -275 432 -11 vhcurveto
          -317 731 rmoveto
          330 118 214 199 35 vhcurveto
          -1199 vlineto
          -205 40 -112 249 331 vvcurveto
          endchar
        </CharString>
        <CharString name="cedi.tnum">
          1295 777 -188 rmoveto
          63 201 hlineto
          149 5 145 35 76 48 10 360 rcurveline
          -74 hlineto
          -53 -237 -107 -104 -146 -3 rrcurveto
          1210 vlineto
          148 -3 104 -120 48 -218 rrcurveto
          74 hlineto
          -9 359 -82 46 -124 35 -159 6 rlinecurve
          199 -63 -199 vlineto
          -412 -10 -283 -280 -422 vvcurveto
          -431 285 -268 410 -9 vhcurveto
          -284 730 rmoveto
          330 105 213 179 36 vhcurveto
          -1198 vlineto
          -185 40 -99 242 337 vvcurveto
          endchar
        </CharString>
        <CharString name="cedilla">
          1024 483 172 callsubr
          42 -61 vlineto
          -170 -200 1 -60 rlineto
          4 9 20 4 16 hhcurveto
          59 40 -25 -43 -45 -42 -24 -60 -49 -48 138 callsubr
        </CharString>
        <CharString name="cedillacmb">
          0 -29 -471 rmoveto
          148 127 68 125 123 -112 67 -86 callgsubr
          77 83 rlineto
          42 -61 vlineto
          -170 -194 80 callsubr
          40 -25 -43 -45 -42 -24 -60 -49 -48 138 callsubr
        </CharString>
        <CharString name="cent">
          1145 683 hmoveto
          194 vlineto
          178 11 150 64 78 102 rrcurveto
          77 vlineto
          -49 -57 10 callgsubr
          27 hvcurveto
          -50 -25 -34 -51 -61 vvcurveto
          -91 69 -74 94 91 75 31 callgsubr
          -15 -237 -207 -315 vvcurveto
          -326 248 -195 305 -19 callgsubr
        </CharString>
        <CharString name="cent.1">
          1110 673 hmoveto
          194 vlineto
          168 10 140 65 74 98 rrcurveto
          77 vlineto
          75 callgsubr
          109 134 158 -28 callgsubr
          -310 -14 -233 30 callgsubr
        </CharString>
        <CharString name="cent.1.tnum">
          1295 752 hmoveto
          194 vlineto
          168 10 140 65 75 98 -1 77 rcurveline
          75 callgsubr
          110 134 157 -28 callgsubr
          -309 -14 -234 30 callgsubr
        </CharString>
        <CharString name="cent.tnum">
          1295 745 hmoveto
          194 vlineto
          178 11 150 64 78 102 -1 77 rcurveline
          -49 -56 10 callgsubr
          26 hvcurveto
          -49 -25 -35 -51 -61 vvcurveto
          -91 70 -74 94 90 76 31 callgsubr
          -14 -237 -208 -315 vvcurveto
          -326 249 -195 304 -19 callgsubr
        </CharString>
</ttFont>
